# This file uses centimeters as units for non-parametric coordinates.

mtllib arch1.mtl
g default
v -71.853613 0.000001 135.277849
v 139.659540 0.000001 135.277849
v -71.853552 0.000001 -0.101194
v 139.659571 0.000001 0.001650
v 3.912207 0.000001 -0.049772
v 3.912161 0.000001 135.277849
vt 0.158928 0.990700
vt 0.169881 0.005528
vt 0.831253 0.995551
vt 0.831051 0.003686
vt 0.833383 0.667018
vt 0.161058 0.666629
vn 0.000000 1.000000 0.000000
vn 0.000000 1.000000 0.000000
vn 0.000000 1.000000 0.000000
vn 0.000000 1.000000 -0.000000
vn 0.000000 1.000000 -0.000000
vn 0.000000 1.000000 0.000000
s 1
g pCube6
usemtl lambert6SG
f 3/3/1 1/1/2 5/5/3
f 5/5/3 1/1/2 6/6/4
f 6/6/4 2/2/5 5/5/3
f 5/5/3 2/2/5 4/4/6
g default
v -51.805084 -5.470862 91.136250
v -1.222777 -5.470862 92.533524
v -51.805084 98.409468 91.136250
v -1.222777 98.409468 92.533524
v -51.025794 98.409468 43.871096
v -2.035160 98.409468 40.255091
v -51.025794 -5.470862 43.871096
v -2.035160 -5.470862 40.255091
v -51.805084 54.072402 91.136250
v -51.025794 54.072402 43.871096
v -51.435368 -5.470862 67.557550
v -128.515178 54.072402 67.557550
v -51.435368 98.409468 67.557550
vt 0.375000 0.000000
vt 0.625000 0.000000
vt 0.375000 0.250000
vt 0.625000 0.250000
vt 0.375000 0.500000
vt 0.625000 0.500000
vt 0.375000 0.750000
vt 0.625000 0.750000
vt 0.125000 0.000000
vt 0.125000 0.250000
vt 0.375000 0.143298
vt 0.375000 0.606702
vt 0.125000 0.143298
vt 0.256394 0.000000
vt 0.256394 0.143298
vt 0.375000 0.368606
vt 0.256394 0.250000
vn 0.027613 0.000000 -0.999619
vn 0.027613 0.000000 -0.999619
vn 0.027613 0.000000 -0.999619
vn 0.027613 0.000000 -0.999619
vn 0.027613 0.000000 -0.999619
vn 0.000000 -1.000000 0.000000
vn 0.000000 -1.000000 0.000000
vn 0.000000 -1.000000 0.000000
vn 0.000000 -1.000000 0.000000
vn 0.000000 -1.000000 0.000000
vn 0.073610 0.000000 0.997287
vn 0.073610 0.000000 0.997287
vn 0.073610 0.000000 0.997287
vn 0.073610 0.000000 0.997287
vn 0.073610 0.000000 0.997287
vn 0.498591 -0.866798 0.008231
vn 0.495946 -0.469636 -0.730397
vn 0.999970 -0.006038 0.004915
vn 0.293808 0.000000 -0.955864
vn 0.611298 0.791336 0.010092
vn 0.533522 0.390185 -0.750407
vn 0.519955 0.370493 0.769664
vn 0.292322 0.000000 0.956320
vn 0.485452 -0.447062 0.751314
s 1
g pCube9
usemtl initialShadingGroup
f 9/9/7 8/8/8 15/17/9
f 7/7/10 15/17/9 8/8/8
f 8/8/8 9/9/7 10/10/11
s 2
f 11/11/12 10/10/13 19/22/14
f 9/9/15 19/22/14 10/10/13
f 10/10/13 11/11/12 12/12/16
s 3
f 11/11/17 16/18/18 12/12/19
f 12/12/19 16/18/18 13/13/20
f 12/12/19 13/13/20 14/14/21
s 4
f 19/23/22 9/9/23 18/21/24
f 15/17/25 18/21/24 9/9/23
f 17/20/26 18/21/24 7/7/27
f 7/7/27 18/21/24 15/17/25
f 17/20/26 13/15/28 18/21/24
f 13/15/28 16/19/29 18/21/24
f 19/23/22 18/21/24 11/16/30
f 18/21/24 16/19/29 11/16/30
g default
v 3.073300 0.277061 135.324389
v 3.073300 147.216202 135.324389
v -11.923640 0.277061 42.204928
v -11.923640 72.799446 42.200503
v -11.923640 76.697151 42.890582
v -11.923640 78.996346 43.297656
v -11.923640 84.586655 47.578051
v -11.923640 87.372490 50.692164
v -11.923640 89.023148 52.537326
v -11.923640 90.810814 56.459247
v -11.923640 91.871552 58.786372
v -11.923640 92.487373 63.132716
v -11.923640 92.853043 65.713488
v -11.923640 92.237198 71.940127
v -11.923640 91.871552 74.520724
v -11.923640 90.083679 78.443087
v -11.923640 89.023148 80.769770
v -11.923640 86.236816 83.884433
v -11.923640 84.586655 85.729045
v -11.923640 78.996346 88.913089
v -11.923640 75.097679 89.603335
v -11.923640 72.799446 90.010234
v -11.923640 0.277061 90.005809
v 3.073300 0.277061 90.005801
v 3.073300 72.940430 90.010234
v 3.073300 76.201180 89.432925
v 3.073300 79.137329 88.913089
v 3.073300 84.727638 85.729045
v 3.073300 87.066772 83.114276
v 3.073300 89.164131 80.769770
v 3.073300 90.666939 77.472781
v 3.073300 92.012535 74.520724
v 3.073300 92.530556 70.864734
v 3.073300 92.994026 65.713488
v 3.073300 92.476021 62.057536
v 3.073300 92.012535 58.786372
v 3.073300 90.509766 55.489482
v 3.073300 89.164131 52.537326
v 3.073300 86.825104 49.922671
v 3.073300 84.727638 47.578051
v 3.073300 79.137329 43.297656
v 3.073300 75.876778 42.720385
v 3.073300 72.940430 42.200503
v 3.073300 0.277061 42.204944
v 3.073300 0.277061 -0.338819
v 3.073300 147.216202 -0.338819
vt 0.000000 0.000000
vt 0.000000 1.000000
vt 0.332248 0.000000
vt 0.332214 0.494513
vt 0.336593 0.516705
vt 0.340536 0.536687
vt 0.364687 0.574732
vt 0.384520 0.590651
vt 0.402303 0.604924
vt 0.427310 0.615152
vt 0.449702 0.624309
vt 0.477432 0.627835
vt 0.502243 0.630989
vt 0.529974 0.627464
vt 0.554785 0.624309
vt 0.579792 0.614082
vt 0.602184 0.604924
vt 0.622016 0.589006
vt 0.639800 0.574732
vt 0.663951 0.536687
vt 0.668329 0.514497
vt 0.672273 0.494513
vt 0.672239 0.000000
vt 1.000000 0.000000
vt 1.000000 1.000000
vt 0.428045 0.008247
vt 0.415383 0.008054
vt 0.415358 0.066410
vt 0.428045 0.066604
vt 0.437384 0.008389
vt 0.435081 0.066711
vt 0.442893 0.066830
vt 0.442893 0.008473
vt 0.457741 0.008678
vt 0.457741 0.067035
vt 0.467065 0.008780
vt 0.464761 0.067111
vt 0.472590 0.067197
vt 0.472590 0.008840
vt 0.481909 0.008906
vt 0.479604 0.067246
vt 0.487438 0.067301
vt 0.487438 0.008944
vt 0.496754 0.008967
vt 0.494450 0.067318
vt 0.502286 0.067337
vt 0.502286 0.008980
vt 0.511603 0.008958
vt 0.509298 0.067320
vt 0.517135 0.067301
vt 0.517135 0.008944
vt 0.526454 0.008879
vt 0.524149 0.067252
vt 0.531983 0.067197
vt 0.531983 0.008840
vt 0.541308 0.008738
vt 0.539002 0.067120
vt 0.546831 0.067035
vt 0.546831 0.008678
vt 0.561679 0.008473
vt 0.561679 0.066830
vt 0.571021 0.008331
vt 0.568715 0.066723
vt 0.576528 0.066604
vt 0.576528 0.008247
vt 0.589214 0.066410
vt 0.589190 0.008053
vn 1.000000 0.000000 0.000000
vn 1.000000 0.000000 0.000000
vn 1.000000 -0.000000 0.000000
vn 1.000000 0.000000 0.000000
vn 1.000000 0.000000 0.000000
vn 1.000000 0.000000 0.000000
vn 1.000000 -0.000000 0.000000
vn 1.000000 0.000000 0.000000
vn 1.000000 0.000000 0.000000
vn 1.000000 0.000000 0.000000
vn 1.000000 0.000000 0.000000
vn 1.000000 0.000000 0.000000
vn 1.000000 -0.000000 0.000000
vn 1.000000 -0.000000 0.000000
vn 1.000000 0.000000 0.000000
vn 1.000000 0.000000 0.000000
vn 1.000000 0.000000 0.000000
vn 1.000000 0.000000 0.000000
vn 1.000000 0.000000 0.000000
vn 1.000000 0.000000 0.000000
vn 1.000000 0.000000 0.000000
vn 1.000000 -0.000000 0.000000
vn 1.000000 0.000000 0.000000
vn 1.000000 0.000000 0.000000
vn 1.000000 -0.000000 0.000000
vn -0.000004 0.000061 1.000000
vn -0.000003 0.000061 1.000000
vn 0.000081 -0.008594 0.999963
vn 0.000066 -0.006897 0.999976
vn 0.001636 -0.174337 0.984685
vn 0.001639 -0.174337 0.984685
vn 0.004557 -0.484807 0.874610
vn 0.004794 -0.509957 0.860187
vn 0.006208 -0.660426 0.750866
vn 0.006139 -0.653059 0.757283
vn 0.007006 -0.745279 0.666716
vn 0.007007 -0.745280 0.666715
vn 0.007854 -0.835435 0.549534
vn 0.008061 -0.857424 0.514547
vn 0.008554 -0.909897 0.414746
vn 0.008554 -0.909898 0.414744
vn 0.009012 -0.958686 0.284322
vn 0.009111 -0.969192 0.246136
vn 0.009308 -0.990068 0.140282
vn 0.009307 -0.990068 0.140280
vn 0.009400 -0.999946 0.004337
vn 0.011152 -0.999616 -0.025381
vn 0.011396 -0.993629 -0.112125
vn 0.009877 -0.993822 -0.110542
vn 0.009042 -0.961840 -0.273464
vn 0.008930 -0.949919 -0.312370
vn 0.008554 -0.909899 -0.414742
vn 0.008554 -0.909896 -0.414747
vn 0.007915 -0.841902 -0.539572
vn 0.007686 -0.817625 -0.575700
vn 0.007006 -0.745280 -0.666715
vn 0.007007 -0.745279 -0.666716
vn 0.005537 -0.588980 -0.808129
vn 0.005358 -0.569940 -0.821669
vn 0.003568 -0.379510 -0.925181
vn 0.003753 -0.399184 -0.916863
vn 0.001639 -0.174335 -0.984685
vn 0.001639 -0.174337 -0.984685
vn 0.000069 -0.007419 -0.999972
vn 0.000050 -0.005308 -0.999986
vn -0.000001 0.000061 -1.000000
vn -0.000001 0.000061 -1.000000
s 1
g pCube13
usemtl lambert2SG
f 20/24/31 43/26/32 21/25/33
f 43/26/32 44/27/34 21/25/33
f 44/27/34 45/28/35 21/25/33
f 45/28/35 46/29/36 21/25/33
f 46/29/36 47/30/37 21/25/33
f 47/30/37 48/31/38 21/25/33
f 48/31/38 49/32/39 21/25/33
f 21/25/33 49/32/39 65/48/40
f 49/32/39 50/33/41 65/48/40
f 50/33/41 51/34/42 65/48/40
f 51/34/42 52/35/43 65/48/40
f 52/35/43 53/36/44 65/48/40
f 53/36/44 54/37/45 65/48/40
f 54/37/45 55/38/46 65/48/40
f 55/38/46 56/39/47 65/48/40
f 56/39/47 57/40/48 65/48/40
f 57/40/48 58/41/49 65/48/40
f 63/46/50 64/47/51 62/45/52
f 58/41/49 59/42/53 65/48/40
f 59/42/53 60/43/54 65/48/40
f 64/47/51 65/48/40 62/45/52
f 62/45/52 65/48/40 61/44/55
f 60/43/54 61/44/55 65/48/40
s 3
f 22/50/56 63/51/57 23/49/58
f 23/49/58 63/51/57 62/52/59
f 24/53/60 23/49/58 61/54/61
f 61/54/61 23/49/58 62/52/59
f 61/54/61 60/55/62 24/53/60
f 24/53/60 60/55/62 25/56/63
f 25/56/63 60/55/62 26/57/64
f 26/57/64 60/55/62 59/58/65
f 27/59/66 26/57/64 58/60/67
f 58/60/67 26/57/64 59/58/65
f 58/60/67 57/61/68 27/59/66
f 27/59/66 57/61/68 28/62/69
f 29/63/70 28/62/69 56/64/71
f 56/64/71 28/62/69 57/61/68
f 56/64/71 55/65/72 29/63/70
f 29/63/70 55/65/72 30/66/73
f 31/67/74 30/66/73 54/68/75
f 54/68/75 30/66/73 55/65/72
f 54/68/75 53/69/76 31/67/74
f 31/67/74 53/69/76 32/70/77
f 33/71/78 32/70/77 52/72/79
f 52/72/79 32/70/77 53/69/76
f 52/72/79 51/73/80 33/71/78
f 33/71/78 51/73/80 34/74/81
f 35/75/82 34/74/81 50/76/83
f 50/76/83 34/74/81 51/73/80
f 50/76/83 49/77/84 35/75/82
f 35/75/82 49/77/84 36/78/85
f 37/79/86 36/78/85 48/80/87
f 48/80/87 36/78/85 49/77/84
f 48/80/87 47/81/88 37/79/86
f 37/79/86 47/81/88 38/82/89
f 39/83/90 38/82/89 46/84/91
f 46/84/91 38/82/89 47/81/88
f 40/85/92 39/83/90 45/86/93
f 45/86/93 39/83/90 46/84/91
f 45/86/93 44/87/94 40/85/92
f 40/85/92 44/87/94 41/88/95
f 44/87/94 43/89/96 41/88/95
f 41/88/95 43/89/96 42/90/97
g default
v 4.254484 0.000006 -0.319797
v 4.254484 8.352147 -0.319797
v -14.937359 8.352147 -0.319797
v -14.937359 0.000006 -0.319797
v 4.254484 0.000006 -0.319797
v 4.254484 8.352147 -0.319797
v -14.937359 8.352147 -0.319797
v -14.937359 0.000006 -0.319797
v -14.937359 0.000006 43.255368
v -14.937359 8.352147 43.255368
v 4.254484 0.000006 43.255368
v 4.254484 8.352147 43.255368
v 4.254484 8.352147 43.287915
v 4.254484 0.000006 43.287915
v -14.937359 0.000006 43.287915
v -14.937359 8.352147 43.287915
v -14.937359 -0.072359 88.571599
v 4.254484 -0.072359 88.571599
v -14.937359 -0.072359 88.581643
v 4.254484 -0.072359 88.581643
v 4.254484 8.304034 88.581643
v -14.937359 8.304034 88.581643
v -14.937359 8.304034 88.571599
v 4.254484 8.304034 88.571599
v 4.254484 8.304034 135.253476
v -14.937359 8.304034 135.253476
v 4.254484 -0.072359 135.253476
v -14.937359 -0.072359 135.253476
vt 0.303346 0.047137
vt 0.872847 0.000000
vt 0.872847 0.250000
vt 0.872847 0.000000
vt -1.502044 -0.168013
vt -0.166019 -0.168013
vt -0.166019 1.168013
vt -1.502044 1.168013
vt -1.502044 -0.168013
vt -0.166019 -0.168013
vt -0.166019 1.168013
vt -1.502044 1.168013
vt -1.502044 -0.168013
vt -0.166019 -0.168013
vt -0.166019 1.168013
vt -1.502044 1.168013
vt -1.502044 -0.168013
vt -0.166019 -0.168013
vt -0.166019 1.168013
vt -1.502044 1.168013
vt 0.872847 0.250000
vt 0.872847 0.000000
vt 0.872847 0.000000
vt 0.872847 0.250000
vt -0.166019 1.168013
vt 0.738940 0.916820
vt 0.738940 0.804376
vt -0.166019 1.168013
vt 0.899360 0.916820
vt 0.237364 0.272887
vt -1.502044 1.168013
vt -0.166019 1.168013
vt -1.502044 1.168013
vt 0.303193 0.047529
vt -1.502044 1.168013
vt -0.166019 1.168013
vt 0.237364 0.047529
vt 0.899360 0.804376
vt 0.303193 0.272887
vt 0.303346 0.272640
vt 0.231688 0.047137
vt 0.872847 0.250000
vt 0.231688 0.272640
vt 0.318323 0.727959
vt 0.269847 0.727959
vt 0.318323 0.723298
vt 0.269847 0.723298
vt 0.331242 0.726370
vt 0.331242 0.722170
vt 0.350683 0.726370
vt 0.350683 0.722170
vn -0.000000 0.000000 1.000000
vn -0.000000 0.000000 1.000000
vn -0.000000 0.000000 1.000000
vn -0.000000 0.000000 1.000000
vn -0.000000 0.000000 1.000000
vn -0.000000 0.000000 1.000000
vn 0.000000 0.000000 0.000000
vn 0.000000 0.000000 0.000000
vn 0.000000 0.000000 0.000000
vn 0.000000 0.000000 0.000000
vn 0.000000 0.000000 0.000000
vn 0.000000 0.000000 0.000000
vn 0.000000 0.000000 0.000000
vn 0.000000 0.000000 0.000000
vn 0.000000 0.000000 0.000000
vn 0.000000 0.000000 0.000000
vn 0.000000 0.000000 0.000000
vn 0.000000 0.000000 0.000000
vn 0.000000 0.000000 0.000000
vn 0.000000 0.000000 0.000000
vn 0.000000 0.000000 0.000000
vn 0.000000 0.000000 0.000000
vn 0.000000 0.000000 0.000000
vn 0.000000 0.000000 0.000000
vn 0.000000 0.000000 0.000000
vn 0.000000 0.000000 0.000000
vn 0.000000 0.000000 0.000000
vn 0.000000 0.000000 0.000000
vn 0.000000 0.000000 0.000000
vn 0.000000 0.000000 0.000000
vn -1.000000 0.000000 0.000000
vn -1.000000 0.000000 0.000000
vn -1.000000 0.000000 0.000000
vn -1.000000 0.000000 0.000000
vn -1.000000 0.000000 0.000000
vn -1.000000 0.000000 0.000000
vn 0.000000 -1.000000 0.000000
vn 0.000000 -1.000000 0.000000
vn 0.000000 -1.000000 0.000000
vn 0.000000 -1.000000 0.000000
vn 0.000000 -1.000000 0.000000
vn 0.000000 -1.000000 0.000000
vn 1.000000 0.000000 0.000000
vn 1.000000 0.000000 0.000000
vn 1.000000 0.000000 0.000000
vn 1.000000 0.000000 0.000000
vn 1.000000 0.000000 0.000000
vn 1.000000 0.000000 0.000000
vn -0.000000 1.000000 0.000000
vn -0.000000 1.000000 0.000000
vn -0.000000 1.000000 0.000000
vn -0.000000 1.000000 0.000000
vn -0.000000 1.000000 0.000000
vn -0.000000 1.000000 0.000000
vn -0.000000 0.000000 1.000000
vn -0.000000 0.000000 1.000000
vn -0.000000 0.000000 1.000000
vn -0.000000 0.000000 1.000000
vn -0.000000 0.000000 1.000000
vn -0.000000 0.000000 1.000000
vn 0.000000 0.000000 -1.000000
vn 0.000000 0.000000 -1.000000
vn 0.000000 0.000000 -1.000000
vn 0.000000 0.000000 -1.000000
vn 0.000000 0.000000 -1.000000
vn 0.000000 0.000000 -1.000000
vn -0.000000 1.000000 0.000000
vn -0.000000 1.000000 0.000000
vn -0.000000 1.000000 0.000000
vn -0.000000 1.000000 0.000000
vn -0.000000 1.000000 0.000000
vn -0.000000 1.000000 0.000000
vn 1.000000 0.000000 0.000000
vn 1.000000 0.000000 0.000000
vn 1.000000 0.000000 0.000000
vn 1.000000 0.000000 0.000000
vn 1.000000 0.000000 0.000000
vn 1.000000 0.000000 0.000000
vn 0.000000 -1.000000 0.000000
vn 0.000000 -1.000000 0.000000
vn 0.000000 -1.000000 0.000000
vn 0.000000 -1.000000 0.000000
vn 0.000000 -1.000000 0.000000
vn 0.000000 -1.000000 0.000000
vn -1.000000 0.000000 0.000000
vn -1.000000 0.000000 0.000000
vn -1.000000 0.000000 0.000000
vn -1.000000 0.000000 0.000000
vn -1.000000 0.000000 0.000000
vn -1.000000 0.000000 0.000000
vn 0.000000 0.000000 -1.000000
vn 0.000000 0.000000 -1.000000
vn 0.000000 0.000000 -1.000000
vn 0.000000 0.000000 -1.000000
s off
g skirting_and_door_frame1
usemtl lambert3SG
f 75/138/98 74/139/99 77/140/100
f 77/140/101 74/139/102 76/141/103
f 70/98/104 71/97/105 66/95/106
f 66/95/107 71/97/108 67/96/109
f 72/102/110 68/99/111 71/101/112
f 68/99/113 67/100/114 71/101/115
f 73/106/116 70/105/117 69/103/118
f 69/103/119 70/105/120 66/104/121
f 73/110/122 69/107/123 72/109/124
f 69/107/125 68/108/126 72/109/127
f 68/93/128 69/94/129 81/114/130
f 81/114/131 69/94/132 80/113/133
f 69/94/134 66/92/135 80/113/136
f 80/113/137 66/92/138 79/112/139
f 66/91/140 67/130/141 79/131/142
f 79/131/143 67/130/144 78/133/145
f 67/132/146 68/93/147 78/111/148
f 78/111/149 68/93/150 81/114/151
f 91/126/152 93/122/153 90/123/154
f 93/122/155 92/121/156 90/123/157
f 89/134/158 83/136/159 88/135/160
f 83/136/161 82/137/162 88/135/163
f 87/116/164 91/117/165 86/119/166
f 91/117/167 90/128/168 86/119/169
f 86/129/170 90/120/171 85/124/172
f 90/120/173 92/127/174 85/124/175
f 85/125/176 92/121/177 84/115/178
f 92/121/179 93/122/180 84/115/181
f 84/115/182 93/122/183 87/118/184
f 93/122/185 91/126/186 87/118/187
s 1
f 71/97/188 70/105/189 72/102/190
f 72/102/190 70/105/189 73/110/191
