# This file uses centimeters as units for non-parametric coordinates.

mtllib bboard-wide.mtl
g default
v -59.919914 33.928322 1.897065
v -59.921947 33.928322 10.058442
v -59.919914 39.199238 1.897065
v -59.921947 39.199238 10.058442
v 62.721794 39.199238 1.915890
v 62.719761 39.199238 10.077267
v 62.721794 33.928322 1.915890
v 62.719761 33.928322 10.077267
v -58.321403 90.104019 2.017825
v -58.322962 90.104019 8.277529
v -58.321403 93.410713 2.017825
v -58.322962 93.410713 8.277529
v 60.501503 93.410713 2.035699
v 60.499944 93.410713 8.295403
v 60.501503 90.104019 2.035699
v 60.499944 90.104019 8.295403
v -28.617204 93.410713 8.279160
v -28.615645 93.410713 2.019455
v -54.447204 90.104019 2.018790
v -54.448763 90.104019 8.278494
v 28.008733 93.410713 8.293262
v 28.010292 93.410713 2.033558
v 56.303047 90.104019 2.034653
v 56.301488 90.104019 8.294357
v -54.447204 39.266785 2.018790
v -54.448763 39.266785 8.278494
v -58.322962 39.266785 8.277529
v -58.321403 39.266785 2.017825
v 60.501503 39.038330 2.035699
v 60.499944 39.038330 8.295403
v 56.301488 39.038330 8.294357
v 56.303047 39.038330 2.034653
v -54.584832 38.207802 4.384356
v -54.584832 90.929146 4.384356
v 56.433638 90.929146 4.400286
v 56.433638 38.207802 4.400286
vt 0.408065 -1.086108
vt 0.657527 -1.034247
vt 0.391667 -0.297153
vt 0.641129 -0.245293
vt 0.375269 0.491801
vt 0.624731 0.543661
vt 0.358871 1.280755
vt 0.608333 1.332616
vt 0.342473 2.069710
vt 0.591935 2.121570
vt 0.906988 -0.982387
vt 0.890590 -0.193433
vt 0.158603 -1.137968
vt 0.142205 -0.349014
vt -0.863178 -0.844373
vt -0.190991 -0.844373
vt -0.863178 -0.172186
vt -0.190991 -0.172186
vt -0.863178 -0.110672
vt -0.190992 -0.110672
vt -0.863178 0.500000
vt -0.190991 0.500000
vt -0.863178 1.172186
vt -0.190991 1.172186
vt -0.863178 1.782858
vt -0.190991 1.782858
vt -0.863178 1.844373
vt -0.190991 1.844373
vt -0.129477 -0.844373
vt -0.129477 -0.172186
vt -0.924692 -0.844373
vt -0.924692 -0.172186
vt -0.863178 0.419680
vt -0.190991 0.419680
vt -1.455044 -0.844373
vt -1.455044 -0.172186
vt -0.863178 1.252506
vt -0.190991 1.252506
vt -0.863178 1.782858
vt -0.190991 1.782858
vt 0.400875 -0.172186
vt 0.400875 -0.844373
vt -1.535364 -0.844373
vt -1.535364 -0.172186
vt -0.863178 1.172186
vt -0.190991 1.172186
vt -0.863178 1.252506
vt -0.190991 1.252506
vt 0.481195 -0.172186
vt 0.481195 -0.844373
vt -0.190991 1.844373
vt -0.863178 1.844373
vt 0.001937 0.001341
vt 0.995071 0.001341
vt 0.995071 0.994475
vt 0.001937 0.994475
vn -1.000000 0.000000 -0.000249
vn -1.000000 0.000000 -0.000249
vn -1.000000 0.000000 -0.000249
vn -1.000000 0.000000 -0.000249
vn 0.000000 1.000000 0.000000
vn 0.000000 1.000000 0.000000
vn -0.000000 1.000000 -0.000000
vn -0.000000 1.000000 -0.000000
vn 1.000000 0.000000 0.000249
vn 1.000000 0.000000 0.000249
vn 1.000000 0.000000 0.000249
vn 1.000000 0.000000 0.000249
vn 0.000000 -1.000000 0.000000
vn 0.000000 -1.000000 0.000000
vn -0.000000 -1.000000 -0.000000
vn -0.000000 -1.000000 -0.000000
vn -0.000153 0.000000 1.000000
vn -0.000153 0.000000 1.000000
vn -0.000153 0.000000 1.000000
vn -0.000153 0.000000 1.000000
vn 0.000153 0.000000 -1.000000
vn 0.000153 0.000000 -1.000000
vn 0.000153 0.000000 -1.000000
vn 0.000153 0.000000 -1.000000
vn -1.000000 0.000000 -0.000249
vn -1.000000 0.000000 -0.000249
vn -1.000000 0.000000 -0.000249
vn -1.000000 0.000000 -0.000249
vn -0.000000 1.000000 -0.000000
vn -0.000000 1.000000 -0.000000
vn 0.000000 1.000000 0.000000
vn 0.000000 1.000000 0.000000
vn 1.000000 0.000000 0.000249
vn 1.000000 0.000000 0.000249
vn 1.000000 0.000000 0.000249
vn 1.000000 0.000000 0.000249
vn 0.000000 -1.000000 0.000000
vn 0.000000 -1.000000 0.000000
vn 0.000000 -1.000000 0.000000
vn 0.000000 -1.000000 0.000000
vn -0.000249 0.000000 1.000000
vn -0.000078 0.000246 1.000000
vn -0.000082 0.000189 1.000000
vn -0.000245 0.001760 0.999998
vn 0.000227 -0.001235 -0.999999
vn 0.000057 -0.000018 -1.000000
vn 0.000245 -0.001719 -0.999999
vn 0.000055 0.000000 -1.000000
vn -0.000000 1.000000 -0.000000
vn -0.000000 1.000000 -0.000000
vn 0.000082 0.000323 -1.000000
vn 0.000143 0.000881 -1.000000
vn 0.000000 -1.000000 0.000000
vn 0.000000 -1.000000 0.000000
vn 0.000000 -1.000000 0.000000
vn 0.000000 -1.000000 0.000000
vn -0.000143 -0.000876 1.000000
vn -0.000082 -0.000322 1.000000
vn -0.000000 1.000000 -0.000000
vn -0.000000 1.000000 0.000000
vn 0.000249 0.000000 -1.000000
vn 0.000093 0.000201 -1.000000
vn 0.000000 -1.000000 0.000000
vn 0.000000 -1.000000 0.000000
vn 0.000000 -1.000000 0.000000
vn 0.000000 -1.000000 0.000000
vn -0.000093 -0.000201 1.000000
vn -0.000249 0.000000 1.000000
vn 1.000000 0.000000 0.000249
vn 1.000000 0.000000 0.000249
vn 1.000000 0.000000 0.000249
vn 1.000000 0.000000 0.000249
vn -0.000249 0.000000 1.000000
vn -0.000249 0.000000 1.000000
vn -0.000249 0.000000 1.000000
vn -0.000249 0.000000 1.000000
vn -1.000000 0.000000 -0.000249
vn -1.000000 0.000000 -0.000249
vn -1.000000 0.000000 -0.000249
vn -1.000000 0.000000 -0.000249
vn 0.000249 0.000000 -1.000000
vn 0.000249 0.000000 -1.000000
vn 0.000249 0.000000 -1.000000
vn 0.000249 0.000000 -1.000000
vn 1.000000 0.000000 0.000249
vn 1.000000 0.000000 0.000249
vn 1.000000 0.000000 0.000249
vn 1.000000 0.000000 0.000249
vn -0.000249 0.000000 1.000000
vn -0.000249 0.000000 1.000000
vn -0.000249 0.000000 1.000000
vn -0.000249 0.000000 1.000000
vn -1.000000 0.000000 -0.000249
vn -1.000000 0.000000 -0.000249
vn -1.000000 0.000000 -0.000249
vn -1.000000 0.000000 -0.000249
vn 0.000249 0.000000 -1.000000
vn 0.000249 0.000000 -1.000000
vn 0.000249 0.000000 -1.000000
vn 0.000249 0.000000 -1.000000
vn -0.000143 0.000000 1.000000
vn -0.000143 0.000000 1.000000
vn -0.000143 0.000000 1.000000
vn -0.000143 0.000000 1.000000
s 1
g polySurface1
usemtl lambert4SG
f 1/1/1 2/2/2 3/3/3
f 3/3/3 2/2/2 4/4/4
s 2
f 3/3/5 4/4/6 5/5/7
f 5/5/7 4/4/6 6/6/8
s 3
f 5/5/9 6/6/10 7/7/11
f 7/7/11 6/6/10 8/8/12
s 4
f 7/7/13 8/8/14 1/9/15
f 1/9/15 8/8/14 2/10/16
s 5
f 2/2/17 8/11/18 4/4/19
f 4/4/19 8/11/18 6/12/20
s 6
f 7/13/21 1/1/22 5/14/23
f 5/14/23 1/1/22 3/3/24
s 7
f 9/15/25 10/16/26 11/17/27
f 11/17/27 10/16/26 12/18/28
s 8
f 11/17/29 12/18/30 18/19/31
f 18/19/31 12/18/30 17/20/32
s 9
f 13/21/33 14/22/34 15/23/35
f 15/23/35 14/22/34 16/24/36
s 10
f 25/25/37 26/26/38 28/27/39
f 28/27/39 26/26/38 27/28/40
s 11
f 10/16/41 20/29/42 12/18/43
f 12/18/43 20/29/42 17/30/44
s 12
f 19/31/45 9/15/46 18/32/47
f 18/32/47 9/15/46 11/17/48
s 8
f 18/19/31 17/20/32 22/33/49
f 22/33/49 17/20/32 21/34/50
s 12
f 23/35/51 19/31/45 22/36/52
f 22/36/52 19/31/45 18/32/47
s 13
f 23/37/53 24/38/54 19/39/55
f 19/39/55 24/38/54 20/40/56
s 11
f 17/30/44 20/29/42 21/41/57
f 21/41/57 20/29/42 24/42/58
s 8
f 22/33/49 21/34/50 13/21/59
f 13/21/59 21/34/50 14/22/60
s 12
f 15/43/61 23/35/51 13/44/62
f 13/44/62 23/35/51 22/36/52
s 14
f 29/45/63 30/46/64 32/47/65
f 32/47/65 30/46/64 31/48/66
s 11
f 21/41/57 24/42/58 14/49/67
f 14/49/67 24/42/58 16/50/68
s 15
f 19/39/69 20/40/70 25/25/71
f 25/25/71 20/40/70 26/26/72
s 16
f 20/40/73 10/51/74 26/26/75
f 26/26/75 10/51/74 27/28/76
s 17
f 10/51/77 9/52/78 27/28/79
f 27/28/79 9/52/78 28/27/80
s 18
f 9/52/81 19/39/82 28/27/83
f 28/27/83 19/39/82 25/25/84
s 19
f 15/23/85 16/24/86 29/45/87
f 29/45/87 16/24/86 30/46/88
s 20
f 16/24/89 24/38/90 30/46/91
f 30/46/91 24/38/90 31/48/92
s 21
f 24/38/93 23/37/94 31/48/95
f 31/48/95 23/37/94 32/47/96
s 22
f 23/37/97 15/23/98 32/47/99
f 32/47/99 15/23/98 29/45/100
s 23
usemtl lambert5SG
f 33/53/101 36/54/102 34/56/103
f 34/56/103 36/54/102 35/55/104
