# This file uses centimeters as units for non-parametric coordinates.

mtllib desk1.mtl
g default
v -23.080420 31.684139 18.660495
v 25.270768 31.684139 18.660495
v -23.080420 34.001728 18.660495
v 25.270768 34.001728 18.660495
v -23.080420 34.001728 -18.893002
v 25.270768 34.001728 -18.893002
v -23.080420 31.684139 -18.893002
v 25.270768 31.684139 -18.893002
v -21.451697 21.836100 14.887119
v 23.302392 21.836100 14.887119
v -20.885627 31.943787 13.896167
v 22.735528 31.943787 14.367221
v -20.885627 31.943787 -14.128682
v 22.170274 31.943787 -14.128682
v -21.451697 21.836100 -15.119625
v 23.302392 21.836100 -15.119625
v 20.889543 1.385334 10.236377
v 19.087892 1.385334 12.403522
v 20.735765 1.385334 12.680744
v 21.553506 22.532906 8.649952
v 16.736718 22.532906 13.443256
v 21.236352 22.532906 13.689212
v 18.397347 1.385334 -13.114621
v 20.641984 1.385334 -11.410489
v 20.846116 1.385334 -13.068997
v 16.783135 22.532906 -13.707829
v 21.784600 22.532906 -9.107556
v 21.831483 22.532906 -13.613659
v -19.765403 1.385334 -10.184895
v -18.039252 1.385334 -12.412632
v -19.695685 1.385334 -12.633091
v -20.374488 22.532906 -8.576596
v -15.725181 22.532906 -13.532521
v -20.230613 22.532906 -13.623768
v -16.192252 1.385334 12.659732
v -18.465873 1.385334 10.994464
v -18.641440 1.385334 12.656253
v -14.568061 22.532906 13.225101
v -19.647925 22.532906 8.711536
v -19.617286 22.532906 13.217792
vt 0.052391 0.858684
vt 0.905515 0.858684
vt 0.029466 0.446440
vt 0.913495 0.963263
vt 0.055069 0.841754
vt 0.957518 0.818045
vt 0.921346 0.381571
vt 0.937915 0.955471
vt 0.970115 0.383820
vt 0.979003 0.245916
vt 1.758638 0.858684
vt 1.750658 0.972188
vt -0.800732 0.858684
vt -0.800732 0.967511
vt 0.930233 0.243667
vt 0.063251 0.955471
vt 0.897005 0.850188
vt 0.047159 0.804014
vt 0.975212 0.446440
vt 0.060372 0.963263
vt 0.308515 0.040656
vt 0.569427 0.070957
vt 0.538719 0.381706
vt 0.277806 0.351405
vt 0.505733 0.394764
vt 0.255733 0.394764
vt 0.447269 0.102217
vt 0.916817 0.219952
vt 0.964823 0.360764
vt 0.925916 0.360764
vt 0.796021 0.097272
vt 0.765313 0.408021
vt 0.047602 0.010356
vt 0.016894 0.321105
vt 0.869122 0.060920
vt 0.881373 0.060920
vt 0.881373 0.106664
vt 0.869122 0.106664
vt 0.893624 0.060920
vt 0.893624 0.106664
vt 0.905875 0.060920
vt 0.905875 0.106664
vt 0.876014 0.058373
vt 0.876014 0.025443
vt 0.910469 0.041908
vt 0.910469 0.125562
vt 0.876014 0.142027
vt 0.876014 0.109097
vt 0.950764 0.072262
vt 0.958981 0.072262
vt 0.958981 0.109332
vt 0.950764 0.109332
vt 0.967198 0.072262
vt 0.967198 0.109332
vt 0.975415 0.072262
vt 0.975415 0.109332
vt 0.955386 0.070198
vt 0.955386 0.043512
vt 0.978496 0.056855
vt 0.978496 0.124646
vt 0.955386 0.137989
vt 0.955386 0.111303
vt 0.869122 0.060920
vt 0.881373 0.060920
vt 0.881373 0.106664
vt 0.869122 0.106664
vt 0.893624 0.060920
vt 0.893624 0.106664
vt 0.905875 0.060920
vt 0.905875 0.106664
vt 0.876014 0.058373
vt 0.876014 0.025443
vt 0.910469 0.041908
vt 0.910469 0.125562
vt 0.876014 0.142027
vt 0.876014 0.109097
vt 0.950764 0.072262
vt 0.958981 0.072262
vt 0.958981 0.109332
vt 0.950764 0.109332
vt 0.967198 0.072262
vt 0.967198 0.109332
vt 0.975415 0.072262
vt 0.975415 0.109332
vt 0.955386 0.070198
vt 0.955386 0.043512
vt 0.978496 0.056855
vt 0.978496 0.124646
vt 0.955386 0.137989
vt 0.955386 0.111303
vt 0.955724 0.219952
vt 0.197269 0.102217
vn 0.000000 0.000000 1.000000
vn 0.000000 0.000000 1.000000
vn 0.000000 0.000000 1.000000
vn 0.000000 0.000000 1.000000
vn 0.000000 1.000000 0.000000
vn 0.000000 1.000000 0.000000
vn 0.000000 1.000000 0.000000
vn 0.000000 1.000000 0.000000
vn 0.000000 0.000000 -1.000000
vn 0.000000 0.000000 -1.000000
vn 0.000000 0.000000 -1.000000
vn 0.000000 0.000000 -1.000000
vn 0.000000 -1.000000 0.000000
vn 0.000000 -1.000000 0.000000
vn 0.000000 -1.000000 0.000000
vn 0.000000 -1.000000 0.000000
vn 1.000000 0.000000 0.000000
vn 1.000000 0.000000 0.000000
vn 1.000000 0.000000 0.000000
vn 1.000000 0.000000 0.000000
vn -1.000000 0.000000 0.000000
vn -1.000000 0.000000 0.000000
vn -1.000000 0.000000 0.000000
vn -1.000000 0.000000 0.000000
vn 0.000000 0.097572 0.995229
vn -0.009137 0.057925 0.998279
vn -0.001456 0.091263 0.995826
vn -0.010784 0.050762 0.998653
vn 0.000000 1.000000 0.000000
vn 0.000000 1.000000 0.000000
vn 0.000000 1.000000 0.000000
vn 0.000000 1.000000 0.000000
vn 0.000000 0.097571 -0.995229
vn 0.000000 0.097571 -0.995229
vn 0.000000 0.097571 -0.995229
vn 0.000000 0.097571 -0.995229
vn 0.000000 -1.000000 0.000000
vn 0.000000 -1.000000 0.000000
vn 0.000000 -1.000000 0.000000
vn 0.000000 -1.000000 0.000000
vn 0.993786 0.111310 0.000000
vn 0.994930 0.100494 -0.003812
vn 0.997566 0.068042 -0.015220
vn 0.998292 0.054968 -0.019802
vn -0.998435 0.055918 0.000000
vn -0.998435 0.055916 0.000000
vn -0.998435 0.055917 0.000000
vn -0.998436 0.055915 0.000000
vn -0.768752 -0.023807 -0.639104
vn -0.746497 -0.030939 -0.664669
vn -0.707264 -0.042789 -0.705654
vn -0.704708 -0.043532 -0.708161
vn -0.165751 -0.043060 0.985227
vn -0.056671 -0.054850 0.996885
vn -0.134625 -0.046500 0.989805
vn -0.054500 -0.055077 0.996994
vn 0.997674 -0.026609 0.062764
vn 0.997673 -0.026610 0.062771
vn 0.997672 -0.026613 0.062789
vn 0.997672 -0.026614 0.062790
vn 0.000000 -1.000000 -0.000000
vn 0.000000 -1.000000 -0.000000
vn 0.000000 -1.000000 -0.000000
vn 0.000000 1.000000 0.000000
vn 0.000000 1.000000 0.000000
vn 0.000000 1.000000 0.000000
vn -0.604507 -0.023807 0.796244
vn -0.631031 -0.030940 0.775141
vn -0.673710 -0.042789 0.737756
vn -0.676328 -0.043532 0.735314
vn 0.991590 -0.043059 0.122047
vn 0.998416 -0.054849 0.012562
vn 0.994788 -0.046500 0.090749
vn 0.998428 -0.055076 0.010388
vn 0.018622 -0.026609 -0.999472
vn 0.018627 -0.026610 -0.999472
vn 0.018641 -0.026613 -0.999472
vn 0.018641 -0.026613 -0.999472
vn 0.000000 -1.000000 0.000000
vn 0.000000 -1.000000 0.000000
vn 0.000000 -1.000000 0.000000
vn 0.000000 1.000000 0.000000
vn 0.000000 1.000000 0.000000
vn 0.000000 1.000000 0.000000
vn 0.790248 -0.023808 0.612325
vn 0.768885 -0.030940 0.638638
vn 0.731086 -0.042788 0.680943
vn 0.728617 -0.043531 0.683536
vn 0.131805 -0.043059 -0.990340
vn 0.022392 -0.054850 -0.998244
vn 0.100541 -0.046500 -0.993846
vn 0.020218 -0.055077 -0.998277
vn -0.999241 -0.026609 -0.028455
vn -0.999241 -0.026610 -0.028463
vn -0.999240 -0.026613 -0.028483
vn -0.999240 -0.026614 -0.028484
vn 0.000000 -1.000000 0.000000
vn 0.000000 -1.000000 0.000000
vn 0.000000 -1.000000 0.000000
vn 0.000000 1.000000 0.000001
vn 0.000000 1.000000 0.000001
vn 0.000000 1.000000 0.000001
vn 0.590721 -0.023807 -0.806524
vn 0.617605 -0.030940 -0.785879
vn 0.660922 -0.042789 -0.749234
vn 0.663581 -0.043532 -0.746836
vn -0.993543 -0.043058 -0.104967
vn -0.998484 -0.054850 0.004615
vn -0.996202 -0.046499 -0.073620
vn -0.998459 -0.055077 0.006789
vn -0.001423 -0.026610 0.999645
vn -0.001429 -0.026611 0.999645
vn -0.001444 -0.026613 0.999645
vn -0.001445 -0.026614 0.999645
vn 0.000000 -1.000000 0.000000
vn 0.000000 -1.000000 0.000000
vn 0.000000 -1.000000 0.000000
vn 0.000000 1.000000 -0.000000
vn 0.000000 1.000000 -0.000000
vn 0.000000 1.000000 -0.000000
s 1
g pCube9
usemtl lambert7SG
f 1/1/1 2/2/2 3/20/3
f 3/20/3 2/2/2 4/4/4
s 2
f 3/3/5 4/19/6 5/18/7
f 5/18/7 4/19/6 6/6/8
s 3
f 5/5/9 6/17/10 7/16/11
f 7/16/11 6/17/10 8/8/12
s 4
f 7/7/13 8/15/14 1/9/15
f 1/9/15 8/15/14 2/10/16
s 5
f 2/2/17 8/11/18 4/4/19
f 4/4/19 8/11/18 6/12/20
s 6
f 7/13/21 1/1/22 5/14/23
f 5/14/23 1/1/22 3/20/24
s 7
f 9/21/25 10/22/26 11/24/27
f 11/24/27 10/22/26 12/23/28
s 8
f 12/23/29 14/25/30 11/24/31
f 11/24/31 14/25/30 13/26/32
s 9
f 13/26/33 14/25/34 15/92/35
f 15/92/35 14/25/34 16/27/36
s 10
f 15/28/37 16/91/38 9/30/39
f 9/30/39 16/91/38 10/29/40
s 11
f 16/31/41 14/32/42 10/22/43
f 10/22/43 14/32/42 12/23/44
s 12
f 15/33/45 9/21/46 13/34/47
f 13/34/47 9/21/46 11/24/48
s 13
f 17/35/49 18/36/50 20/38/51
f 20/38/51 18/36/50 21/37/52
s 14
f 19/39/53 22/40/54 18/36/55
f 18/36/55 22/40/54 21/37/56
s 15
f 19/39/57 17/41/58 22/40/59
f 22/40/59 17/41/58 20/42/60
s off
f 18/43/61 17/44/62 19/45/63
f 22/46/64 20/47/65 21/48/66
s 16
f 23/49/67 24/50/68 26/52/69
f 26/52/69 24/50/68 27/51/70
s 17
f 25/53/71 28/54/72 24/50/73
f 24/50/73 28/54/72 27/51/74
s 18
f 25/53/75 23/55/76 28/54/77
f 28/54/77 23/55/76 26/56/78
s off
f 24/57/79 23/58/80 25/59/81
f 28/60/82 26/61/83 27/62/84
s 19
f 29/63/85 30/64/86 32/66/87
f 32/66/87 30/64/86 33/65/88
s 20
f 31/67/89 34/68/90 30/64/91
f 30/64/91 34/68/90 33/65/92
s 21
f 31/67/93 29/69/94 34/68/95
f 34/68/95 29/69/94 32/70/96
s off
f 30/71/97 29/72/98 31/73/99
f 34/74/100 32/75/101 33/76/102
s 22
f 35/77/103 36/78/104 38/80/105
f 38/80/105 36/78/104 39/79/106
s 23
f 37/81/107 40/82/108 36/78/109
f 36/78/109 40/82/108 39/79/110
s 24
f 37/81/111 35/83/112 40/82/113
f 40/82/113 35/83/112 38/84/114
s off
f 36/85/115 35/86/116 37/87/117
f 40/88/118 38/89/119 39/90/120
