# This file uses centimeters as units for non-parametric coordinates.

mtllib door2.mtl
g default
v -0.230362 0.000000 -0.328262
v 2.911159 0.000000 -0.328262
v 2.911159 79.433258 -0.328262
v -0.230362 79.433258 -0.328262
v -0.230362 0.000000 -42.113930
v -0.230362 79.433258 -42.113930
v 2.911159 0.000000 -42.113930
v 2.911159 73.874580 -6.553608
v 2.911159 73.874580 -19.520649
v 2.911159 33.963799 -19.520649
v 2.911159 33.963799 -24.149311
v 2.911159 73.874580 -24.149311
v 2.911159 73.874580 -36.297947
v 2.911159 33.963799 -36.297947
v 2.911159 24.535469 -36.297947
v 2.911159 4.736045 -36.297947
v 2.911159 79.433258 -42.113930
v 2.911159 4.736045 -24.149311
v 2.911159 4.736045 -19.520649
v 2.911159 4.736045 -6.553608
v 2.911159 24.535469 -6.553608
v 2.911159 33.963799 -6.553608
v 2.911159 24.535469 -19.520649
v 2.911159 24.535469 -24.149311
v 1.874881 36.106102 -8.032550
v 1.874881 71.732277 -8.032550
v 1.874881 71.732277 -18.041708
v 1.874881 36.106102 -18.041708
v 1.874881 35.701519 -25.600191
v 1.874881 72.136864 -25.600191
v 1.874881 72.136864 -34.847069
v 1.874881 35.701519 -34.847069
v 1.874881 6.948828 -8.032550
v 1.874881 22.322685 -8.032550
v 1.874881 22.322685 -18.041708
v 1.874881 6.948828 -18.041708
v 1.874881 6.950005 -25.954214
v 1.874881 22.321510 -25.954214
v 1.874881 22.321510 -34.493046
v 1.874881 6.950005 -34.493046
vt 0.000000 0.000000
vt 0.000000 0.000000
vt 0.000000 1.000000
vt 0.000000 1.000000
vt 0.921249 0.000000
vt 0.921249 1.000000
vt 0.921249 0.000000
vt 0.153525 0.859745
vt 0.921249 1.000000
vt 0.860954 0.859745
vt 0.874747 0.143148
vt 0.874747 0.855199
vt 0.860020 0.141471
vt 0.860020 0.859673
vt 0.860954 0.139314
vt 0.150238 0.141471
vt 0.150238 0.859673
vt 0.153525 0.139314
vt 0.148049 0.856556
vt 0.145886 0.143148
vt 0.862495 0.141875
vt 0.148049 0.141875
vt 0.862495 0.856556
vt 0.145886 0.855199
vt 0.211270 0.795937
vt 0.211270 0.196866
vt 0.805294 0.795937
vt 0.805294 0.196866
vt 0.194542 0.797121
vt 0.194542 0.197767
vt 0.805289 0.797121
vt 0.805289 0.197767
vt 0.208680 0.795453
vt 0.208680 0.198808
vt 0.803950 0.795453
vt 0.803950 0.198808
vt 0.209531 0.796433
vt 0.209531 0.193573
vt 0.802761 0.796433
vt 0.802761 0.193573
vt 0.363833 0.585079
vt 0.148983 0.927935
vt 0.444153 0.404184
vt 0.459306 0.927935
vt 0.860814 0.427577
vt 0.531351 0.585079
vt 0.860814 0.930021
vt 0.562498 0.621829
vt 0.479600 0.466384
vt 0.446871 0.378773
vt 0.148983 0.308882
vt 0.148983 0.059623
vt 0.568070 0.628032
vt 0.631470 0.466384
vt 0.580504 0.059623
vt 0.862899 0.059623
vt 0.150238 0.859673
vt 0.580504 0.930021
vt 0.444153 0.619744
vt 0.194542 0.797121
vt 0.194542 0.197767
vt 0.150238 0.141471
vt 0.562498 0.404184
vt 0.479600 0.585079
vt 0.531351 0.466384
vt 0.446871 0.628032
vt 0.568070 0.378773
vt 0.459306 0.059623
vt 0.148983 0.427577
vt 0.363833 0.466384
vt 0.629385 0.585079
vt 0.862899 0.308882
vt 0.949624 0.435425
vt 0.979146 0.435425
vt 0.949624 0.636713
vt 0.979146 0.636713
vt 0.949624 0.636713
vt 0.979146 0.636713
vt 0.949624 0.435425
vt 0.979146 0.435425
vn 0.000000 0.000000 1.000000
vn 0.000000 0.000000 1.000000
vn 0.000000 0.000000 1.000000
vn 0.000000 0.000000 1.000000
vn -1.000000 0.000000 0.000000
vn -1.000000 0.000000 0.000000
vn -1.000000 0.000000 0.000000
vn -1.000000 0.000000 0.000000
vn 0.000000 -1.000000 0.000000
vn 0.000000 -1.000000 0.000000
vn 0.000000 -1.000000 0.000000
vn 0.000000 -1.000000 0.000000
vn 1.000000 0.000000 0.000000
vn 1.000000 0.000000 0.000000
vn 1.000000 0.000000 0.000000
vn 1.000000 0.000000 0.000000
vn 1.000000 0.000000 0.000000
vn 1.000000 0.000000 0.000000
vn 1.000000 0.000000 0.000000
vn 1.000000 0.000000 0.000000
vn 1.000000 0.000000 0.000000
vn 1.000000 0.000000 0.000000
vn 1.000000 0.000000 0.000000
vn 1.000000 0.000000 0.000000
vn 1.000000 0.000000 0.000000
vn 1.000000 0.000000 0.000000
vn 1.000000 0.000000 0.000000
vn 1.000000 0.000000 0.000000
vn 1.000000 0.000000 0.000000
vn 1.000000 0.000000 0.000000
vn 1.000000 0.000000 0.000000
vn 1.000000 0.000000 0.000000
vn 0.000000 1.000000 0.000000
vn 0.000000 1.000000 0.000000
vn 0.000000 1.000000 0.000000
vn 0.000000 1.000000 0.000000
vn 0.000000 0.000000 -1.000000
vn 0.000000 0.000000 -1.000000
vn 0.000000 0.000000 -1.000000
vn 0.000000 0.000000 -1.000000
vn 0.818967 0.000000 -0.573841
vn 0.818967 0.000000 -0.573841
vn 0.818967 0.000000 -0.573841
vn 0.818967 0.000000 -0.573841
vn 0.900212 -0.435452 0.000000
vn 0.900212 -0.435452 0.000000
vn 0.900212 -0.435452 0.000000
vn 0.900212 -0.435452 0.000000
vn 1.000000 0.000000 0.000000
vn 1.000000 0.000000 0.000000
vn 1.000000 0.000000 0.000000
vn 1.000000 0.000000 0.000000
vn 0.900212 0.435452 0.000000
vn 0.900212 0.435452 0.000000
vn 0.900212 0.435452 0.000000
vn 0.900212 0.435452 0.000000
vn 0.818967 0.000000 0.573841
vn 0.818966 0.000000 0.573842
vn 0.818967 0.000000 0.573841
vn 0.818966 0.000000 0.573842
vn 0.813751 0.000000 -0.581214
vn 0.813750 0.000000 -0.581215
vn 0.813751 0.000000 -0.581214
vn 0.813750 0.000000 -0.581215
vn 0.858875 -0.512185 0.000000
vn 0.858875 -0.512186 0.000000
vn 0.858875 -0.512185 0.000000
vn 0.858875 -0.512186 0.000000
vn 1.000000 0.000000 0.000000
vn 1.000000 0.000000 0.000000
vn 1.000000 0.000000 0.000000
vn 1.000000 0.000000 0.000000
vn 0.858875 0.512185 0.000000
vn 0.858875 0.512185 0.000000
vn 0.858875 0.512185 0.000000
vn 0.858875 0.512185 0.000000
vn 0.813749 0.000000 0.581216
vn 0.813752 0.000000 0.581213
vn 0.813749 0.000000 0.581216
vn 0.813752 0.000000 0.581213
vn 0.818967 0.000000 -0.573841
vn 0.818967 0.000000 -0.573841
vn 0.818967 0.000000 -0.573841
vn 0.818967 0.000000 -0.573840
vn 0.905611 -0.424110 0.000000
vn 0.905611 -0.424110 0.000000
vn 0.905611 -0.424110 0.000000
vn 0.905611 -0.424110 0.000000
vn 1.000000 0.000000 0.000000
vn 1.000000 0.000000 0.000000
vn 1.000000 0.000000 0.000000
vn 1.000000 0.000000 0.000000
vn 0.905610 0.424111 0.000000
vn 0.905610 0.424111 0.000000
vn 0.905611 0.424111 0.000000
vn 0.905610 0.424111 0.000000
vn 0.818967 0.000000 0.573841
vn 0.818966 0.000000 0.573842
vn 0.818967 0.000000 0.573841
vn 0.818966 0.000000 0.573842
vn 0.867226 0.000000 -0.497915
vn 0.867226 0.000000 -0.497914
vn 0.867226 0.000000 -0.497915
vn 0.867227 0.000000 -0.497914
vn 0.905697 -0.423926 0.000000
vn 0.905697 -0.423926 0.000000
vn 0.905697 -0.423926 0.000000
vn 0.905697 -0.423926 0.000000
vn 1.000000 0.000000 0.000000
vn 1.000000 0.000000 0.000000
vn 1.000000 0.000000 0.000000
vn 1.000000 0.000000 0.000000
vn 0.905697 0.423926 0.000000
vn 0.905697 0.423926 0.000000
vn 0.905697 0.423926 0.000000
vn 0.905697 0.423925 0.000000
vn 0.867226 0.000000 0.497916
vn 0.867226 0.000000 0.497915
vn 0.867226 0.000000 0.497916
vn 0.867226 0.000000 0.497915
s 1
g pCube19
usemtl lambert10SG
f 1/73/1 2/74/2 4/75/3
f 4/75/3 2/74/2 3/76/4
s 2
f 5/5/5 1/1/6 6/6/7
f 6/6/7 1/1/6 4/3/8
s 3
f 5/5/9 7/7/10 1/1/11
f 1/1/11 7/7/10 2/2/12
s 4
f 3/4/13 8/42/14 17/9/15
f 8/42/14 9/44/16 17/9/15
f 7/7/17 17/9/15 16/56/18
f 16/56/18 17/9/15 15/72/19
f 15/72/19 17/9/15 14/45/20
f 14/45/20 17/9/15 13/47/21
f 10/43/22 11/63/23 9/59/16
f 11/63/23 12/48/24 9/59/16
f 9/44/16 12/58/24 17/9/15
f 12/58/24 13/47/21 17/9/15
f 10/64/22 22/41/25 21/70/26
f 7/7/17 16/56/18 2/2/27
f 16/56/18 18/55/28 2/2/27
f 18/55/28 19/68/29 2/2/27
f 19/68/29 20/52/30 2/2/27
f 3/4/13 2/2/27 8/42/14
f 8/42/14 2/2/27 22/69/25
f 22/69/25 2/2/27 21/51/26
f 2/2/27 20/52/30 21/51/26
f 21/70/26 23/49/31 10/64/22
f 19/50/29 18/67/28 23/66/31
f 18/67/28 24/53/32 23/66/31
f 23/49/31 24/65/32 10/64/22
f 10/64/22 24/65/32 11/46/23
f 24/65/32 15/54/19 11/46/23
f 15/54/19 14/71/20 11/46/23
s 8
f 4/3/33 3/4/34 6/6/35
f 6/6/35 3/4/34 17/9/36
s 9
f 6/77/37 17/78/38 5/79/39
f 5/79/39 17/78/38 7/80/40
s 10
f 8/8/41 22/18/42 26/25/43
f 26/25/43 22/18/42 25/26/44
s 11
f 9/10/45 8/8/46 27/27/47
f 27/27/47 8/8/46 26/25/48
s 12
f 28/28/49 27/27/50 25/26/51
f 25/26/51 27/27/50 26/25/52
s 13
f 22/18/53 10/15/54 25/26/55
f 25/26/55 10/15/54 28/28/56
s 14
f 10/15/57 9/10/58 28/28/59
f 28/28/59 9/10/58 27/27/60
s 15
f 12/57/61 11/16/62 30/29/63
f 30/29/63 11/16/62 29/61/64
s 16
f 13/14/65 12/17/66 31/31/67
f 31/31/67 12/17/66 30/60/68
s 17
f 32/32/69 31/31/70 29/30/71
f 29/30/71 31/31/70 30/60/72
s 18
f 11/62/73 14/13/74 29/30/75
f 29/30/75 14/13/74 32/32/76
s 19
f 14/13/77 13/14/78 32/32/79
f 32/32/79 13/14/78 31/31/80
s 20
f 21/19/81 20/22/82 34/33/83
f 34/33/83 20/22/82 33/34/84
s 21
f 23/23/85 21/19/86 35/35/87
f 35/35/87 21/19/86 34/33/88
s 22
f 36/36/89 35/35/90 33/34/91
f 33/34/91 35/35/90 34/33/92
s 23
f 20/22/93 19/21/94 33/34/95
f 33/34/95 19/21/94 36/36/96
s 24
f 19/21/97 23/23/98 36/36/99
f 36/36/99 23/23/98 35/35/100
s 25
f 24/24/101 18/20/102 38/37/103
f 38/37/103 18/20/102 37/38/104
s 26
f 15/12/105 24/24/106 39/39/107
f 39/39/107 24/24/106 38/37/108
s 27
f 40/40/109 39/39/110 37/38/111
f 37/38/111 39/39/110 38/37/112
s 28
f 18/20/113 16/11/114 37/38/115
f 37/38/115 16/11/114 40/40/116
s 29
f 16/11/117 15/12/118 40/40/119
f 40/40/119 15/12/118 39/39/120
g default
v 4.619763 27.967815 -37.670322
v 5.462151 27.806264 -37.909317
v 5.658970 27.639740 -38.761578
v 5.013443 27.634778 -39.374824
v 4.171080 27.796333 -39.135830
v 3.974251 27.962856 -38.283582
v 4.568603 28.726596 -37.149413
v 6.027635 28.446778 -37.563360
v 6.368554 28.158367 -39.039502
v 5.250479 28.149772 -40.101691
v 3.791474 28.429590 -39.687736
v 3.450514 28.718003 -38.211599
v 4.642806 29.641210 -37.061717
v 6.327542 29.318100 -37.539709
v 6.721225 28.985075 -39.244204
v 5.430173 28.975158 -40.470712
v 3.745436 29.298268 -39.992716
v 3.351755 29.631294 -38.288217
v 4.822501 30.466597 -37.430740
v 6.281517 30.186780 -37.844700
v 6.622466 29.898365 -39.320827
v 5.504377 29.889772 -40.383013
v 4.045343 30.169592 -39.969064
v 3.704426 30.458005 -38.492922
v 5.059537 30.981590 -38.157605
v 5.901902 30.820034 -38.396600
v 6.098739 30.653516 -39.248848
v 5.453211 30.648553 -39.862104
v 4.610831 30.810104 -39.623107
v 4.414010 30.976626 -38.770853
v 4.782598 27.568181 -38.484892
v 5.290380 31.048186 -39.047542
vt 0.582296 0.819255
vt 0.605598 0.819062
vt 0.628899 0.818870
vt 0.652201 0.818678
vt 0.675503 0.818485
vt 0.698804 0.818293
vt 0.722106 0.818101
vt 0.582489 0.842556
vt 0.605790 0.842364
vt 0.629092 0.842172
vt 0.652394 0.841979
vt 0.675695 0.841787
vt 0.698997 0.841595
vt 0.722299 0.841402
vt 0.582681 0.865858
vt 0.605983 0.865666
vt 0.629284 0.865473
vt 0.652586 0.865281
vt 0.675888 0.865089
vt 0.699189 0.864896
vt 0.722491 0.864704
vt 0.582873 0.889160
vt 0.606175 0.888968
vt 0.629477 0.888775
vt 0.652778 0.888583
vt 0.676080 0.888390
vt 0.699382 0.888198
vt 0.722683 0.888006
vt 0.583066 0.912462
vt 0.606367 0.912269
vt 0.629669 0.912077
vt 0.652971 0.911884
vt 0.676272 0.911692
vt 0.699574 0.911500
vt 0.722876 0.911308
vt 0.593755 0.795857
vt 0.617056 0.795665
vt 0.640358 0.795472
vt 0.663660 0.795280
vt 0.686961 0.795088
vt 0.710263 0.794895
vt 0.594909 0.935667
vt 0.618210 0.935475
vt 0.641512 0.935282
vt 0.664814 0.935090
vt 0.688116 0.934898
vt 0.711417 0.934705
vn 0.126589 -0.555603 0.821755
vn 0.126587 -0.555606 0.821753
vn 0.126587 -0.555605 0.821753
vn 0.126586 -0.555607 0.821753
vn 0.635977 -0.716415 0.286851
vn 0.635974 -0.716416 0.286854
vn 0.635974 -0.716416 0.286853
vn 0.635973 -0.716417 0.286855
vn 0.416050 -0.800458 -0.431473
vn 0.416050 -0.800463 -0.431465
vn 0.416050 -0.800462 -0.431466
vn 0.416050 -0.800464 -0.431462
vn -0.313260 -0.723705 -0.614913
vn -0.313262 -0.723705 -0.614913
vn -0.313262 -0.723705 -0.614913
vn -0.313263 -0.723705 -0.614913
vn -0.822658 -0.562878 -0.080013
vn -0.822638 -0.562905 -0.080025
vn -0.822642 -0.562900 -0.080023
vn -0.822633 -0.562913 -0.080029
vn -0.602721 -0.478865 0.638291
vn -0.602717 -0.478848 0.638308
vn -0.602718 -0.478851 0.638305
vn -0.602716 -0.478843 0.638312
vn 0.251169 -0.112556 0.961377
vn 0.251174 -0.112551 0.961376
vn 0.251171 -0.112553 0.961376
vn 0.251175 -0.112549 0.961376
vn 0.907586 -0.319775 0.272087
vn 0.907578 -0.319788 0.272098
vn 0.907582 -0.319782 0.272093
vn 0.907575 -0.319793 0.272102
vn 0.624178 -0.428099 -0.653554
vn 0.624177 -0.428092 -0.653560
vn 0.624177 -0.428096 -0.653557
vn 0.624177 -0.428090 -0.653562
vn -0.315633 -0.329174 -0.889955
vn -0.315632 -0.329177 -0.889954
vn -0.315632 -0.329176 -0.889955
vn -0.315631 -0.329179 -0.889954
vn -0.972032 -0.121976 -0.200690
vn -0.972036 -0.121955 -0.200684
vn -0.972034 -0.121965 -0.200687
vn -0.972037 -0.121947 -0.200682
vn -0.688631 -0.013646 0.724984
vn -0.688631 -0.013645 0.724984
vn -0.688631 -0.013645 0.724984
vn -0.688631 -0.013645 0.724984
vn 0.315629 0.329175 0.889956
vn 0.315632 0.329180 0.889953
vn 0.315630 0.329177 0.889955
vn 0.315634 0.329182 0.889952
vn 0.972036 0.121959 0.200680
vn 0.972035 0.121953 0.200685
vn 0.972036 0.121957 0.200682
vn 0.972035 0.121949 0.200689
vn 0.688633 0.013641 -0.724982
vn 0.688632 0.013645 -0.724983
vn 0.688632 0.013643 -0.724983
vn 0.688631 0.013647 -0.724983
vn -0.251174 0.112561 -0.961375
vn -0.251172 0.112554 -0.961376
vn -0.251173 0.112558 -0.961375
vn -0.251171 0.112550 -0.961377
vn -0.907583 0.319774 -0.272098
vn -0.907580 0.319788 -0.272092
vn -0.907582 0.319780 -0.272096
vn -0.907578 0.319796 -0.272089
vn -0.624171 0.428099 0.653560
vn -0.624176 0.428093 0.653559
vn -0.624174 0.428097 0.653560
vn -0.624179 0.428090 0.653559
vn 0.313261 0.723706 0.614912
vn 0.313261 0.723706 0.614913
vn 0.313261 0.723706 0.614912
vn 0.313261 0.723704 0.614914
vn 0.822644 0.562896 0.080029
vn 0.822643 0.562899 0.080023
vn 0.822643 0.562898 0.080025
vn 0.822640 0.562904 0.080012
vn 0.602715 0.478849 -0.638310
vn 0.602716 0.478847 -0.638310
vn 0.602715 0.478848 -0.638310
vn 0.602717 0.478845 -0.638310
vn -0.126586 0.555604 -0.821755
vn -0.126588 0.555606 -0.821753
vn -0.126587 0.555605 -0.821753
vn -0.126590 0.555610 -0.821750
vn -0.635972 0.716417 -0.286854
vn -0.635972 0.716418 -0.286854
vn -0.635972 0.716418 -0.286854
vn -0.635971 0.716419 -0.286854
vn -0.416047 0.800464 0.431465
vn -0.416045 0.800465 0.431465
vn -0.416046 0.800465 0.431465
vn -0.416043 0.800466 0.431466
vn -0.050207 -0.900575 0.431791
vn -0.050207 -0.900575 0.431791
vn -0.050207 -0.900575 0.431791
vn 0.148963 -0.963450 0.222651
vn 0.148963 -0.963450 0.222651
vn 0.148963 -0.963450 0.222651
vn 0.062971 -0.996316 -0.058223
vn 0.062971 -0.996316 -0.058223
vn 0.062971 -0.996316 -0.058223
vn -0.222195 -0.966304 -0.129948
vn -0.222195 -0.966304 -0.129948
vn -0.222195 -0.966304 -0.129948
vn -0.421369 -0.903424 0.079205
vn -0.421369 -0.903424 0.079205
vn -0.421369 -0.903424 0.079205
vn -0.335381 -0.870562 0.360059
vn -0.335381 -0.870562 0.360059
vn -0.335381 -0.870562 0.360059
vn 0.222195 0.966304 0.129946
vn 0.222195 0.966304 0.129946
vn 0.222195 0.966304 0.129946
vn 0.421362 0.903428 -0.079198
vn 0.421362 0.903428 -0.079198
vn 0.421362 0.903428 -0.079198
vn 0.335371 0.870562 -0.360066
vn 0.335371 0.870562 -0.360066
vn 0.335371 0.870562 -0.360066
vn 0.050205 0.900574 -0.431795
vn 0.050205 0.900574 -0.431795
vn 0.050205 0.900574 -0.431795
vn -0.148967 0.963450 -0.222651
vn -0.148967 0.963450 -0.222651
vn -0.148967 0.963450 -0.222651
vn -0.062974 0.996315 0.058222
vn -0.062974 0.996315 0.058222
vn -0.062974 0.996315 0.058222
s 1
g pSphere1
usemtl lambert11SG
f 41/81/121 42/82/122 47/88/123
f 47/88/123 42/82/122 48/89/124
s 2
f 42/82/125 43/83/126 48/89/127
f 48/89/127 43/83/126 49/90/128
s 3
f 43/83/129 44/84/130 49/90/131
f 49/90/131 44/84/130 50/91/132
s 4
f 44/84/133 45/85/134 50/91/135
f 50/91/135 45/85/134 51/92/136
s 5
f 45/85/137 46/86/138 51/92/139
f 51/92/139 46/86/138 52/93/140
s 6
f 46/86/141 41/87/142 52/93/143
f 52/93/143 41/87/142 47/94/144
s 7
f 47/88/145 48/89/146 53/95/147
f 53/95/147 48/89/146 54/96/148
s 8
f 48/89/149 49/90/150 54/96/151
f 54/96/151 49/90/150 55/97/152
s 9
f 49/90/153 50/91/154 55/97/155
f 55/97/155 50/91/154 56/98/156
s 10
f 50/91/157 51/92/158 56/98/159
f 56/98/159 51/92/158 57/99/160
s 11
f 51/92/161 52/93/162 57/99/163
f 57/99/163 52/93/162 58/100/164
s 12
f 52/93/165 47/94/166 58/100/167
f 58/100/167 47/94/166 53/101/168
s 13
f 53/95/169 54/96/170 59/102/171
f 59/102/171 54/96/170 60/103/172
s 14
f 54/96/173 55/97/174 60/103/175
f 60/103/175 55/97/174 61/104/176
s 15
f 55/97/177 56/98/178 61/104/179
f 61/104/179 56/98/178 62/105/180
s 16
f 56/98/181 57/99/182 62/105/183
f 62/105/183 57/99/182 63/106/184
s 17
f 57/99/185 58/100/186 63/106/187
f 63/106/187 58/100/186 64/107/188
s 18
f 58/100/189 53/101/190 64/107/191
f 64/107/191 53/101/190 59/108/192
s 19
f 59/102/193 60/103/194 65/109/195
f 65/109/195 60/103/194 66/110/196
s 20
f 60/103/197 61/104/198 66/110/199
f 66/110/199 61/104/198 67/111/200
s 21
f 61/104/201 62/105/202 67/111/203
f 67/111/203 62/105/202 68/112/204
s 22
f 62/105/205 63/106/206 68/112/207
f 68/112/207 63/106/206 69/113/208
s 23
f 63/106/209 64/107/210 69/113/211
f 69/113/211 64/107/210 70/114/212
s 24
f 64/107/213 59/108/214 70/114/215
f 70/114/215 59/108/214 65/115/216
s off
f 42/82/217 41/81/218 71/116/219
f 43/83/220 42/82/221 71/117/222
f 44/84/223 43/83/224 71/118/225
f 45/85/226 44/84/227 71/119/228
f 46/86/229 45/85/230 71/120/231
f 41/87/232 46/86/233 71/121/234
f 65/109/235 66/110/236 72/122/237
f 66/110/238 67/111/239 72/123/240
f 67/111/241 68/112/242 72/124/243
f 68/112/244 69/113/245 72/125/246
f 69/113/247 70/114/248 72/126/249
f 70/114/250 65/115/251 72/127/252
