# This file uses centimeters as units for non-parametric coordinates.

mtllib grounds.mtl
g default
v -2955.149394 -0.000000 2330.264577
v 3288.667989 -0.000000 2330.264577
v -2955.149394 0.000000 -1862.335032
v 3288.667989 0.000000 -1862.335032
vt -1.533656 -1.526976
vt 2.533656 -1.526976
vt -1.533656 2.522620
vt 2.533656 2.522620
vn 0.000000 1.000000 0.000000
vn 0.000000 1.000000 0.000000
vn 0.000000 1.000000 0.000000
vn 0.000000 1.000000 0.000000
s 1
g pPlane1
usemtl lambert10SG
f 1/1/1 2/2/2 3/3/3
f 3/3/3 2/2/2 4/4/4
