# This file uses centimeters as units for non-parametric coordinates.

g default
v 0.751405 -14.306157 11.208844
v 2.737659 -14.306157 11.208842
v 0.751405 14.545919 11.208843
v 0.751405 14.545941 -11.101416
v 0.751405 4.987745 -9.397542
v 0.751405 12.511403 -9.397542
v 0.751405 12.511403 9.563677
v 0.751405 -12.628629 9.563678
v 0.751405 -12.628629 -2.886537
v 2.737659 -14.306157 -11.101416
v 2.737659 14.705355 11.208841
v 0.751405 -14.306157 -11.101416
v 0.751405 -12.628629 -9.397542
v 2.737659 -12.628629 2.954489
v 2.737659 -12.628629 9.563676
v 2.737659 4.399402 9.563675
v 2.737659 14.705355 -11.101418
v 2.737659 12.511403 9.563675
v 2.737659 12.511403 -9.397546
v 2.737659 -12.628629 -9.397544
vt -0.000000 0.000000
vt -0.000000 0.000000
vt -0.000000 0.994504
vt 0.555354 0.514168
vt 0.555354 0.548561
vt 1.000000 0.994505
vt 0.442014 0.548561
vt 0.442014 0.448638
vt 0.516435 0.448638
vt 1.000000 0.000000
vt -0.000000 1.000000
vt 1.000000 0.000000
vt 0.555354 0.448638
vt 0.442014 0.511479
vt 0.442014 0.448638
vt 0.481520 0.448638
vt 1.000000 1.000000
vt 0.442014 0.548561
vt 0.555354 0.548561
vt 0.555354 0.448638
vn 0.000001 0.000000 1.000000
vn 0.000001 0.000000 1.000000
vn -0.000001 0.000000 1.000000
vn -1.000000 0.000000 0.000000
vn -1.000000 0.000000 0.000000
vn -1.000000 0.000000 0.000000
vn -1.000000 0.000000 0.000000
vn -1.000000 0.000000 0.000000
vn -1.000000 0.000000 0.000000
vn -1.000000 0.000000 0.000000
vn -1.000000 0.000000 0.000000
vn -1.000000 0.000000 0.000000
vn -1.000000 0.000000 0.000000
vn -1.000000 0.000000 0.000000
vn -1.000000 0.000000 0.000000
vn -1.000000 0.000000 0.000000
vn -1.000000 0.000000 0.000000
vn -1.000000 0.000000 0.000000
vn -1.000000 0.000000 0.000000
vn -1.000000 0.000000 0.000000
vn -1.000000 0.000000 0.000000
vn 0.000000 -1.000000 0.000000
vn 0.000000 -1.000000 0.000000
vn 0.000000 -1.000000 0.000000
vn -0.000001 0.000000 1.000000
vn 0.000001 0.000000 1.000000
vn -0.000001 0.000000 1.000000
vn -0.080013 0.996794 0.000001
vn -0.080011 0.996794 0.000001
vn -0.080002 0.996795 0.000000
vn -1.000000 0.000000 0.000000
vn -1.000000 0.000000 0.000000
vn -1.000000 0.000000 0.000000
vn -1.000000 0.000000 0.000000
vn -1.000000 0.000000 0.000000
vn -1.000000 0.000000 0.000000
vn -1.000000 0.000000 0.000000
vn -1.000000 0.000000 0.000000
vn -1.000000 0.000000 0.000000
vn -1.000000 0.000000 0.000000
vn -1.000000 0.000000 0.000000
vn -1.000000 0.000000 0.000000
vn 0.000000 -1.000000 0.000000
vn 0.000000 -1.000000 0.000000
vn 0.000000 -1.000000 0.000000
vn 1.000000 0.000000 0.000000
vn 1.000000 0.000000 0.000000
vn 1.000000 0.000000 0.000000
vn 1.000000 0.000000 0.000000
vn 1.000000 0.000000 0.000000
vn 1.000000 0.000000 0.000000
vn 1.000000 0.000000 0.000000
vn 1.000000 0.000000 0.000000
vn 1.000000 0.000000 0.000000
vn 1.000000 0.000000 0.000000
vn 1.000000 0.000000 0.000000
vn 1.000000 0.000000 0.000000
vn -0.080002 0.996795 0.000000
vn -0.080011 0.996794 0.000001
vn -0.080002 0.996795 0.000000
vn -0.000001 -0.000000 -1.000000
vn -0.000001 -0.000000 -1.000000
vn -0.000001 -0.000000 -1.000000
vn 1.000000 0.000000 0.000000
vn 1.000000 0.000000 0.000000
vn 1.000000 0.000000 0.000000
vn 1.000000 0.000000 0.000000
vn 1.000000 0.000000 0.000000
vn 1.000000 0.000000 0.000000
vn 1.000000 0.000000 0.000000
vn 1.000000 0.000000 0.000000
vn 1.000000 0.000000 0.000000
vn 1.000000 0.000000 0.000000
vn 1.000000 0.000000 0.000000
vn 1.000000 0.000000 0.000000
vn 1.000000 0.000000 0.000000
vn 1.000000 0.000000 0.000000
vn 1.000000 0.000000 0.000000
vn 1.000000 0.000000 0.000000
vn 1.000000 0.000000 0.000000
vn 1.000000 0.000000 0.000000
vn -0.000001 -0.000000 -1.000000
vn -0.000001 -0.000000 -1.000000
vn -0.000001 -0.000000 -1.000000
vn -0.000001 -0.000000 -1.000000
vn 0.000000 -0.000000 -1.000000
vn -0.000001 -0.000000 -1.000000
vn -0.000001 -0.000000 -1.000000
vn 0.000000 -0.000000 -1.000000
vn 0.000002 -0.000000 -1.000000
vn 0.000000 -0.000000 -1.000000
vn -0.000001 -0.000000 -1.000000
vn 0.000002 -0.000000 -1.000000
vn 0.000000 1.000000 0.000000
vn 0.000000 1.000000 0.000000
vn 0.000000 1.000000 0.000000
vn 0.000000 1.000000 0.000000
vn 0.000000 1.000000 0.000000
vn 0.000000 1.000000 0.000000
vn 0.000000 1.000000 0.000000
vn 0.000000 1.000000 0.000000
vn 0.000000 1.000000 0.000000
vn 0.000000 1.000000 0.000000
vn 0.000000 1.000000 0.000000
vn 0.000000 1.000000 0.000000
vn 0.000000 -1.000000 0.000000
vn 0.000000 -1.000000 0.000000
vn 0.000000 -1.000000 0.000000
vn 0.000000 -1.000000 0.000000
vn 0.000000 -1.000000 0.000000
vn 0.000000 -1.000000 0.000000
vn 0.000001 0.000000 1.000000
vn 0.000001 0.000000 1.000000
vn 0.000001 0.000000 1.000000
vn 0.000001 0.000000 1.000000
vn 0.000001 0.000000 1.000000
vn 0.000001 0.000000 1.000000
vn 0.000001 0.000000 1.000000
vn 0.000001 0.000000 1.000000
vn 0.000001 0.000000 1.000000
s off
g door1:pCube12
usemtl door1:lambert8SG
f 1/1/1 2/2/2 3/3/3
f 5/4/4 6/5/5 4/6/6
f 4/6/7 6/5/8 3/3/9
f 6/5/10 7/7/11 3/3/12
f 3/3/13 7/7/14 1/1/15
f 7/7/16 8/8/17 1/1/18
f 8/8/19 9/9/20 1/1/21
f 1/1/22 10/10/23 2/2/24
f 3/3/25 2/2/26 11/11/27
f 3/3/28 11/11/29 4/6/30
f 4/6/31 12/12/32 5/4/33
f 5/4/34 12/12/35 13/13/36
f 1/1/37 9/9/38 12/12/39
f 12/12/40 9/9/41 13/13/42
f 12/12/43 10/10/44 1/1/45
f 11/11/46 2/2/47 16/14/48
f 16/14/49 2/2/50 15/15/51
f 10/10/52 14/16/53 2/2/54
f 2/2/55 14/16/56 15/15/57
f 4/6/58 11/11/59 17/17/60
f 4/6/61 10/10/62 12/12/63
f 16/14/64 18/18/65 11/11/66
f 11/11/67 18/18/68 17/17/69
f 18/18/70 19/19/71 17/17/72
f 17/17/73 19/19/74 10/10/75
f 19/19/76 20/20/77 10/10/78
f 20/20/79 14/16/80 10/10/81
f 17/17/82 10/10/83 4/6/84

f 8/8/85 7/7/86 15/15/87
f 15/15/88 7/7/89 16/14/90
f 7/7/91 18/18/92 16/14/93
f 13/13/94 9/9/95 20/20/96
f 20/20/97 9/9/98 14/16/99
f 9/9/100 8/8/101 14/16/102
f 8/8/103 15/15/104 14/16/105
f 7/7/106 6/5/107 18/18/108
f 18/18/109 6/5/110 19/19/111
f 6/5/112 5/4/113 19/19/114
f 19/19/115 5/4/116 20/20/117
f 5/4/118 13/13/119 20/20/120
