# This file uses centimeters as units for non-parametric coordinates.

mtllib pz-fence.mtl
g default
v -2.618740 11.663318 33.554903
v -1.856173 44.717292 35.144289
v -6.466248 44.717292 35.144289
v -6.050305 11.663318 33.554903
v -6.050305 11.929880 28.787251
v -2.618740 11.929880 28.787251
v -1.856173 44.983827 28.787251
v -6.466248 44.983827 28.787251
v 1.090103 35.654011 49.049836
v 1.090103 42.184816 49.049836
v -1.960165 42.184816 49.049836
v -1.960165 35.654011 49.049836
v -2.722732 35.520743 -51.865673
v 0.084905 35.520743 -51.865673
v 0.084905 40.718737 -51.865673
v -2.722732 40.718737 -51.865673
v 1.471399 24.858219 49.447244
v 1.471399 29.789626 49.447244
v -1.578869 29.789626 49.447244
v -1.578869 24.858219 49.447244
v -1.578869 23.658677 -51.468517
v 1.471399 23.658677 -51.468517
v 1.471399 30.189481 -51.468517
v -1.578869 30.189481 -51.468517
v -1.440230 12.063174 2.167882
v -1.440230 45.116970 2.167882
v -7.228815 45.116970 2.167882
v -7.228815 12.063174 2.167882
v -7.228815 12.063174 -4.188903
v -1.440230 12.063174 -4.188903
v -1.440230 45.116970 -4.188903
v -7.228815 45.116970 -4.188903
v -1.128253 11.263488 -32.000502
v -2.098805 44.450502 -33.986797
v -6.570215 44.450502 -33.986797
v -7.367455 11.263488 -32.000502
v -7.367455 11.130194 -39.151850
v -1.128253 11.130194 -39.151850
v -2.098805 44.317359 -39.151850
v -6.570215 44.317359 -39.151850
vt -0.402344 0.605469
vt -0.402344 0.031250
vt -0.753906 0.031250
vt -0.753906 0.605469
vt -0.953125 0.390625
vt -0.953125 0.039063
vt -0.601563 0.039063
vt -0.601563 0.390625
vt -0.949219 0.027344
vt -0.597656 0.031250
vt -0.609375 0.617188
vt -0.945313 0.617188
vt -0.945313 0.382813
vt -0.945313 0.031250
vt -0.593750 0.031250
vt -0.593750 0.382813
vt -0.832031 0.023438
vt -0.828125 0.605469
vt -0.480469 0.613281
vt -0.480469 0.023438
vt -0.593750 0.027344
vt -0.609375 0.597656
vt -0.953125 0.593750
vt -0.859375 0.777344
vt -0.859375 0.683594
vt -0.957031 0.683594
vt -0.957031 0.777344
vt -0.953125 0.929688
vt -0.945313 0.660156
vt -0.031250 0.652344
vt -0.031250 0.933594
vt -0.972656 0.660156
vt -0.039063 0.667969
vt -0.035156 0.898438
vt -0.972656 0.902344
vt -0.964844 0.843750
vt -0.968750 0.683594
vt -0.042969 0.679688
vt -0.042969 0.832031
vt -0.097656 0.664063
vt -0.101563 0.726563
vt -0.039063 0.726563
vt -0.039063 0.664063
vt -0.968750 0.667969
vt -0.054688 0.675781
vt -0.058594 0.890625
vt -0.968750 0.882813
vt -0.812500 0.828125
vt -0.812500 0.671875
vt -0.968750 0.671875
vt -0.968750 0.828125
vt -0.968750 0.945313
vt -0.968750 0.656250
vt -0.035156 0.652344
vt -0.035156 0.941406
vt -0.960938 0.656250
vt -0.031250 0.660156
vt -0.031250 0.929688
vt -0.957031 0.929688
vt -0.960938 0.941406
vt -0.957031 0.664063
vt -0.023438 0.656250
vt -0.027344 0.933594
vt -0.183594 0.656250
vt -0.183594 0.808594
vt -0.031250 0.808594
vt -0.031250 0.656250
vt -0.964844 0.660156
vt -0.031250 0.941406
vt -0.964844 0.929688
vt -0.031250 0.617188
vt -0.039063 0.039063
vt -0.390625 0.039063
vt -0.382813 0.617188
vt -0.738281 0.386719
vt -0.738281 0.035156
vt -0.476563 0.031250
vt -0.476563 0.382813
vt -0.859375 0.070313
vt -0.507813 0.070313
vt -0.515625 0.605469
vt -0.867188 0.605469
vt -0.714844 0.386719
vt -0.714844 0.035156
vt -0.453125 0.031250
vt -0.453125 0.382813
vt -0.378906 0.613281
vt -0.027344 0.613281
vt -0.769531 0.039063
vt -0.417969 0.039063
vt -0.417969 0.605469
vt -0.769531 0.605469
vt -0.039063 0.390625
vt -0.089844 0.039063
vt -0.343750 0.039063
vt -0.390625 0.390625
vt -0.738281 0.394531
vt -0.738281 0.042969
vt -0.386719 0.042969
vt -0.386719 0.394531
vt -0.382813 0.039063
vt -0.035156 0.027344
vt -0.039063 0.386719
vt -0.546875 0.375000
vt -0.546875 0.023438
vt -0.195313 0.023438
vt -0.195313 0.375000
vt -0.335938 0.039063
vt -0.082031 0.039063
vt -0.296875 0.039063
vt -0.042969 0.039063
vt -0.390625 0.386719
vt -0.945313 0.031250
vt -0.945313 0.031250
vt -0.390625 0.039063
vt -0.390625 0.039063
vt -0.039063 0.039063
vt -0.390625 0.390625
vt -0.390625 0.390625
vt -0.039063 0.390625
vt -0.039063 0.390625
vt -0.039063 0.390625
vt -0.039063 0.390625
vn 0.000000 -0.048029 0.998846
vn 0.000000 -0.048029 0.998846
vn 0.000000 -0.048029 0.998846
vn 0.000000 -0.048029 0.998846
vn 0.000000 -0.048029 0.998846
vn 0.000000 -0.048029 0.998846
vn 0.000000 -0.998441 -0.055823
vn 0.000000 -0.998441 -0.055823
vn 0.000000 -0.998441 -0.055823
vn 0.000000 -0.998441 -0.055823
vn 0.000000 -0.998441 -0.055823
vn 0.000000 -0.998441 -0.055823
vn 0.999735 -0.023018 -0.000965
vn 0.999735 -0.023018 -0.000965
vn 0.999735 -0.023018 -0.000965
vn 0.999733 -0.023064 -0.001290
vn 0.999733 -0.023064 -0.001290
vn 0.999733 -0.023064 -0.001290
vn 0.000000 0.999122 0.041891
vn 0.000000 0.999122 0.041891
vn 0.000000 0.999122 0.041891
vn 0.000000 0.999122 0.041891
vn 0.000000 0.999122 0.041891
vn 0.000000 0.999122 0.041891
vn 0.000000 0.000000 -1.000000
vn 0.000000 0.000000 -1.000000
vn 0.000000 0.000000 -1.000000
vn 0.000000 0.000000 -1.000000
vn 0.000000 0.000000 -1.000000
vn 0.000000 0.000000 -1.000000
vn -0.999921 -0.012583 -0.000528
vn -0.999921 -0.012583 -0.000528
vn -0.999921 -0.012583 -0.000528
vn -0.999921 -0.012549 -0.000702
vn -0.999921 -0.012549 -0.000702
vn -0.999921 -0.012549 -0.000702
vn 0.000000 -0.000000 1.000000
vn 0.000000 -0.000000 1.000000
vn 0.000000 -0.000000 1.000000
vn 0.000000 -0.000000 1.000000
vn 0.000000 -0.000000 1.000000
vn 0.000000 -0.000000 1.000000
vn 0.000000 -0.999999 0.001321
vn 0.000000 -0.999999 0.001321
vn 0.000000 -0.999999 0.001321
vn 0.000000 -0.999999 0.001321
vn 0.000000 -0.999999 0.001321
vn 0.000000 -0.999999 0.001321
vn 0.999950 0.000000 -0.009960
vn 0.999950 0.000000 -0.009960
vn 0.999950 0.000000 -0.009960
vn 0.999950 0.000000 -0.009960
vn 0.999950 0.000000 -0.009960
vn 0.999950 0.000000 -0.009960
vn 0.000000 0.999894 -0.014526
vn 0.000000 0.999894 -0.014526
vn 0.000000 0.999894 -0.014526
vn 0.000000 0.999894 -0.014526
vn 0.000000 0.999894 -0.014526
vn 0.000000 0.999894 -0.014526
vn 0.000000 0.000000 -1.000000
vn 0.000000 0.000000 -1.000000
vn 0.000000 0.000000 -1.000000
vn 0.000000 0.000000 -1.000000
vn 0.000000 0.000000 -1.000000
vn 0.000000 0.000000 -1.000000
vn -0.999971 0.000000 0.007556
vn -0.999971 0.000000 0.007556
vn -0.999971 0.000000 0.007556
vn -0.999971 0.000000 0.007556
vn -0.999971 0.000000 0.007556
vn -0.999971 0.000000 0.007556
vn 0.000000 -0.000000 1.000000
vn 0.000000 -0.000000 1.000000
vn 0.000000 -0.000000 1.000000
vn 0.000000 -0.000000 1.000000
vn 0.000000 -0.000000 1.000000
vn 0.000000 -0.000000 1.000000
vn 0.000000 -0.999929 0.011886
vn 0.000000 -0.999929 0.011886
vn 0.000000 -0.999929 0.011886
vn 0.000000 -0.999929 0.011886
vn 0.000000 -0.999929 0.011886
vn 0.000000 -0.999929 0.011886
vn 1.000000 0.000000 0.000000
vn 1.000000 0.000000 0.000000
vn 1.000000 0.000000 0.000000
vn 1.000000 0.000000 0.000000
vn 1.000000 0.000000 0.000000
vn 1.000000 0.000000 0.000000
vn 0.000000 0.999992 0.003962
vn 0.000000 0.999992 0.003962
vn 0.000000 0.999992 0.003962
vn 0.000000 0.999992 0.003962
vn 0.000000 0.999992 0.003962
vn 0.000000 0.999992 0.003962
vn 0.000000 0.000000 -1.000000
vn 0.000000 0.000000 -1.000000
vn 0.000000 0.000000 -1.000000
vn 0.000000 0.000000 -1.000000
vn 0.000000 0.000000 -1.000000
vn 0.000000 0.000000 -1.000000
vn -1.000000 0.000000 -0.000000
vn -1.000000 0.000000 -0.000000
vn -1.000000 0.000000 -0.000000
vn -1.000000 0.000000 0.000000
vn -1.000000 0.000000 0.000000
vn -1.000000 0.000000 0.000000
vn 0.000000 -0.000000 1.000000
vn 0.000000 -0.000000 1.000000
vn 0.000000 -0.000000 1.000000
vn 0.000000 -0.000000 1.000000
vn 0.000000 -0.000000 1.000000
vn 0.000000 -0.000000 1.000000
vn 0.000000 -1.000000 0.000000
vn 0.000000 -1.000000 0.000000
vn 0.000000 -1.000000 0.000000
vn 0.000000 -1.000000 0.000000
vn 0.000000 -1.000000 0.000000
vn 0.000000 -1.000000 0.000000
vn 1.000000 0.000000 0.000000
vn 1.000000 0.000000 0.000000
vn 1.000000 0.000000 0.000000
vn 1.000000 0.000000 0.000000
vn 1.000000 0.000000 0.000000
vn 1.000000 0.000000 0.000000
vn 0.000000 1.000000 0.000000
vn 0.000000 1.000000 0.000000
vn 0.000000 1.000000 0.000000
vn 0.000000 1.000000 0.000000
vn 0.000000 1.000000 0.000000
vn 0.000000 1.000000 0.000000
vn 0.000000 0.000000 -1.000000
vn 0.000000 0.000000 -1.000000
vn 0.000000 0.000000 -1.000000
vn 0.000000 0.000000 -1.000000
vn 0.000000 0.000000 -1.000000
vn 0.000000 0.000000 -1.000000
vn -1.000000 0.000000 -0.000000
vn -1.000000 0.000000 -0.000000
vn -1.000000 0.000000 -0.000000
vn -1.000000 0.000000 -0.000000
vn -1.000000 0.000000 -0.000000
vn -1.000000 0.000000 -0.000000
vn 0.000000 0.059745 0.998214
vn 0.000000 0.059745 0.998214
vn 0.000000 0.059745 0.998214
vn 0.000000 0.059745 0.998214
vn 0.000000 0.059745 0.998214
vn 0.000000 0.059745 0.998214
vn 0.000000 -0.999826 0.018636
vn 0.000000 -0.999826 0.018636
vn 0.000000 -0.999826 0.018636
vn 0.000000 -0.999826 0.018636
vn 0.000000 -0.999826 0.018636
vn 0.000000 -0.999826 0.018636
vn 0.999574 0.029187 -0.000752
vn 0.999574 0.029187 -0.000752
vn 0.999574 0.029187 -0.000752
vn 0.999573 0.029232 -0.000545
vn 0.999573 0.029232 -0.000545
vn 0.999573 0.029232 -0.000545
vn 0.000000 0.999668 -0.025769
vn 0.000000 0.999668 -0.025769
vn 0.000000 0.999668 -0.025769
vn 0.000000 0.999668 -0.025769
vn 0.000000 0.999668 -0.025769
vn 0.000000 0.999668 -0.025769
vn 0.000000 0.000000 -1.000000
vn 0.000000 0.000000 -1.000000
vn 0.000000 0.000000 -1.000000
vn 0.000000 0.000000 -1.000000
vn 0.000000 0.000000 -1.000000
vn 0.000000 0.000000 -1.000000
vn -0.999711 0.024016 -0.000619
vn -0.999711 0.024016 -0.000619
vn -0.999711 0.024016 -0.000619
vn -0.999712 0.023989 -0.000447
vn -0.999712 0.023989 -0.000447
vn -0.999712 0.023989 -0.000447
s off
g pz_fence:Mesh
usemtl pz_fence
f 1/1/1 2/2/2 3/3/3
f 1/1/4 3/3/5 4/4/6
f 5/5/7 6/6/8 1/7/9
f 5/5/10 1/7/11 4/8/12
f 7/9/13 2/10/14 1/11/15
f 7/9/16 1/11/17 6/12/18
f 7/13/19 8/14/20 3/15/21
f 7/13/22 3/15/23 2/16/24
f 7/17/25 6/18/26 5/19/27
f 7/17/28 5/19/29 8/20/30
f 3/113/31 8/21/32 5/22/33
f 3/114/34 5/22/35 4/23/36
f 9/24/37 10/25/38 11/26/39
f 9/24/40 11/26/41 12/27/42
f 13/28/43 14/29/44 9/30/45
f 13/28/46 9/30/47 12/31/48
f 15/32/49 10/33/50 9/34/51
f 15/32/52 9/34/53 14/35/54
f 15/36/55 16/37/56 11/38/57
f 15/36/58 11/38/59 10/39/60
f 15/40/61 14/41/62 13/42/63
f 15/40/64 13/42/65 16/43/66
f 11/44/67 16/45/68 13/46/69
f 11/44/70 13/46/71 12/47/72
f 17/48/73 18/49/74 19/50/75
f 17/48/76 19/50/77 20/51/78
f 21/52/79 22/53/80 17/54/81
f 21/52/82 17/54/83 20/55/84
f 23/56/85 18/57/86 17/58/87
f 23/56/88 17/58/89 22/59/90
f 23/60/91 24/61/92 19/62/93
f 23/60/94 19/62/95 18/63/96
f 23/64/97 22/65/98 21/66/99
f 23/64/100 21/66/101 24/67/102
f 19/68/103 24/67/104 21/69/105
f 19/68/106 21/69/107 20/70/108
f 25/71/109 26/72/110 27/73/111
f 25/71/112 27/73/113 28/74/114
f 29/75/115 30/76/116 25/77/117
f 29/75/118 25/77/119 28/78/120
f 31/79/121 26/80/122 25/81/123
f 31/79/124 25/81/125 30/82/126
f 31/83/127 32/84/128 27/85/129
f 31/83/130 27/85/131 26/86/132
f 31/115/133 30/87/134 29/88/135
f 31/116/136 29/88/137 32/117/138
f 27/89/139 32/90/140 29/91/141
f 27/89/142 29/91/143 28/92/144
f 33/93/145 34/94/146 35/95/147
f 33/93/148 35/95/149 36/96/150
f 37/97/151 38/98/152 33/99/153
f 37/97/154 33/99/155 36/100/156
f 39/101/157 34/102/158 33/103/159
f 39/101/160 33/103/161 38/118/162
f 39/104/163 40/105/164 35/106/165
f 39/104/166 35/106/167 34/107/168
f 39/108/169 38/119/170 37/120/171
f 39/108/172 37/121/173 40/109/174
f 35/110/175 40/111/176 37/122/177
f 35/110/178 37/123/179 36/112/180
