# This file uses centimeters as units for non-parametric coordinates.

mtllib key-black.mtl
g default
v -0.300000 1.475780 5.500000
v 0.300000 1.475780 5.500000
v -0.300000 1.545179 5.500000
v 0.300000 1.545179 5.500000
v -0.231667 2.116031 5.332534
v 0.231667 2.116031 5.332534
v -0.231667 1.811091 0.000000
v 0.231667 1.811091 0.000000
v -0.300000 1.545179 0.000000
v 0.300000 1.545179 0.000000
v -0.300000 1.475780 0.000000
v 0.300000 1.475780 0.000000
vt 0.375000 0.000000
vt 0.625000 0.000000
vt 0.375000 0.125000
vt 0.625000 0.125000
vt 0.375000 0.250000
vt 0.625000 0.250000
vt 0.375000 0.500000
vt 0.625000 0.500000
vt 0.375000 0.625000
vt 0.625000 0.625000
vt 0.375000 0.750000
vt 0.625000 0.750000
vt 0.375000 1.000000
vt 0.625000 1.000000
vt 0.875000 0.000000
vt 0.875000 0.125000
vt 0.875000 0.250000
vt 0.125000 0.000000
vt 0.125000 0.125000
vt 0.125000 0.250000
vn 0.000000 0.000000 1.000000
vn 0.000000 0.000000 1.000000
vn 0.000000 0.251050 0.967974
vn 0.000000 0.248180 0.968714
vn 0.000000 0.281498 0.959562
vn 0.000000 0.281498 0.959562
vn 0.000000 0.998369 -0.057092
vn 0.000000 0.998369 -0.057092
vn 0.000000 0.998369 -0.057092
vn 0.000000 0.998369 -0.057092
vn 0.000000 0.000000 -1.000000
vn 0.000000 0.000000 -1.000000
vn 0.000000 0.000000 -1.000000
vn 0.000000 0.000000 -1.000000
vn 0.000000 0.000000 -1.000000
vn 0.000000 0.000000 -1.000000
vn 0.000000 -1.000000 0.000000
vn 0.000000 -1.000000 0.000000
vn 0.000000 -1.000000 0.000000
vn 0.000000 -1.000000 0.000000
vn 1.000000 0.000000 0.000000
vn 1.000000 0.000000 0.000000
vn 0.994611 0.103679 0.000000
vn 0.982289 0.187108 -0.009947
vn 0.992700 0.120608 -0.000190
vn 0.968434 0.248865 -0.014231
vn -1.000000 0.000000 0.000000
vn -1.000000 0.000000 0.000000
vn -0.982289 0.187108 -0.009947
vn -0.994611 0.103679 0.000000
vn -0.992700 0.120608 -0.000190
vn -0.968434 0.248865 -0.014231
s 1
g pCube4
usemtl initialShadingGroup
f 1/1/1 2/2/2 3/3/3
f 3/3/3 2/2/2 4/4/4
f 3/3/3 4/4/4 5/5/5
f 5/5/5 4/4/4 6/6/6
s 2
f 5/5/7 6/6/8 7/7/9
f 7/7/9 6/6/8 8/8/10
s 3
f 7/7/11 8/8/12 9/9/13
f 9/9/13 8/8/12 10/10/14
f 9/9/13 10/10/14 11/11/15
f 11/11/15 10/10/14 12/12/16
s 4
f 11/11/17 12/12/18 1/13/19
f 1/13/19 12/12/18 2/14/20
s 5
f 2/2/21 12/15/22 4/4/23
f 4/4/23 12/15/22 10/16/24
f 4/4/23 10/16/24 6/6/25
f 6/6/25 10/16/24 8/17/26
s 6
f 11/18/27 1/1/28 9/19/29
f 9/19/29 1/1/28 3/3/30
f 3/3/30 5/5/31 9/19/29
f 9/19/29 5/5/31 7/20/32
