# This file uses centimeters as units for non-parametric coordinates.

mtllib key-black.mtl
g default
v -0.300000 0.150000 5.500000
v 0.300000 0.150000 5.500000
v -0.300000 1.300000 5.500000
v 0.300000 1.300000 5.500000
v -0.231667 2.450000 5.332534
v 0.231667 2.450000 5.332534
v -0.231667 2.450000 0.000000
v 0.231667 2.450000 0.000000
v -0.300000 1.300000 0.000000
v 0.300000 1.300000 0.000000
v -0.300000 0.150000 0.000000
v 0.300000 0.150000 0.000000
vt 0.375000 0.000000
vt 0.625000 0.000000
vt 0.375000 0.125000
vt 0.625000 0.125000
vt 0.375000 0.250000
vt 0.625000 0.250000
vt 0.375000 0.500000
vt 0.625000 0.500000
vt 0.375000 0.625000
vt 0.625000 0.625000
vt 0.375000 0.750000
vt 0.625000 0.750000
vt 0.375000 1.000000
vt 0.625000 1.000000
vt 0.875000 0.000000
vt 0.875000 0.125000
vt 0.875000 0.250000
vt 0.125000 0.000000
vt 0.125000 0.125000
vt 0.125000 0.250000
vn 0.000000 0.000000 1.000000
vn 0.000000 0.000000 1.000000
vn 0.000000 0.071243 0.997459
vn 0.000000 0.069171 0.997605
vn 0.000000 0.144103 0.989563
vn 0.000000 0.144103 0.989563
vn 0.000000 1.000000 0.000000
vn 0.000000 1.000000 0.000000
vn 0.000000 1.000000 0.000000
vn 0.000000 1.000000 0.000000
vn 0.000000 0.000000 -1.000000
vn 0.000000 0.000000 -1.000000
vn 0.000000 0.000000 -1.000000
vn 0.000000 0.000000 -1.000000
vn 0.000000 0.000000 -1.000000
vn 0.000000 0.000000 -1.000000
vn 0.000000 -1.000000 0.000000
vn 0.000000 -1.000000 0.000000
vn 0.000000 -1.000000 0.000000
vn 0.000000 -1.000000 0.000000
vn 1.000000 0.000000 0.000000
vn 1.000000 0.000000 0.000000
vn 0.999600 0.028268 0.000000
vn 0.999571 0.029301 0.000000
vn 0.998239 0.059316 0.000000
vn 0.998239 0.059316 0.000000
vn -1.000000 0.000000 0.000000
vn -1.000000 0.000000 0.000000
vn -0.999571 0.029301 0.000000
vn -0.999600 0.028268 0.000000
vn -0.998239 0.059316 0.000000
vn -0.998239 0.059316 0.000000
s 1
g pCube4
usemtl initialShadingGroup
f 1/1/1 2/2/2 3/3/3
f 3/3/3 2/2/2 4/4/4
f 3/3/3 4/4/4 5/5/5
f 5/5/5 4/4/4 6/6/6
s 2
f 5/5/7 6/6/8 7/7/9
f 7/7/9 6/6/8 8/8/10
s 3
f 7/7/11 8/8/12 9/9/13
f 9/9/13 8/8/12 10/10/14
f 9/9/13 10/10/14 11/11/15
f 11/11/15 10/10/14 12/12/16
s 4
f 11/11/17 12/12/18 1/13/19
f 1/13/19 12/12/18 2/14/20
s 5
f 2/2/21 12/15/22 4/4/23
f 4/4/23 12/15/22 10/16/24
f 4/4/23 10/16/24 6/6/25
f 6/6/25 10/16/24 8/17/26
s 6
f 11/18/27 1/1/28 9/19/29
f 9/19/29 1/1/28 3/3/30
f 3/3/30 5/5/31 9/19/29
f 9/19/29 5/5/31 7/20/32
g default
v -0.300000 0.150000 5.500000
v 0.300000 0.150000 5.500000
v -0.300000 1.300000 5.500000
v 0.300000 1.300000 5.500000
v -0.231667 2.450000 5.332534
v 0.231667 2.450000 5.332534
v -0.231667 2.450000 0.000000
v 0.231667 2.450000 0.000000
v -0.300000 1.300000 0.000000
v 0.300000 1.300000 0.000000
v -0.300000 0.150000 0.000000
v 0.300000 0.150000 0.000000
vt 0.375000 0.000000
vt 0.625000 0.000000
vt 0.375000 0.125000
vt 0.625000 0.125000
vt 0.375000 0.250000
vt 0.625000 0.250000
vt 0.375000 0.500000
vt 0.625000 0.500000
vt 0.375000 0.625000
vt 0.625000 0.625000
vt 0.375000 0.750000
vt 0.625000 0.750000
vt 0.375000 1.000000
vt 0.625000 1.000000
vt 0.875000 0.000000
vt 0.875000 0.125000
vt 0.875000 0.250000
vt 0.125000 0.000000
vt 0.125000 0.125000
vt 0.125000 0.250000
vn 0.000000 0.000000 1.000000
vn 0.000000 0.000000 1.000000
vn 0.000000 0.071243 0.997459
vn 0.000000 0.069171 0.997605
vn 0.000000 0.144103 0.989563
vn 0.000000 0.144103 0.989563
vn 0.000000 1.000000 0.000000
vn 0.000000 1.000000 0.000000
vn 0.000000 1.000000 0.000000
vn 0.000000 1.000000 0.000000
vn 0.000000 0.000000 -1.000000
vn 0.000000 0.000000 -1.000000
vn 0.000000 0.000000 -1.000000
vn 0.000000 0.000000 -1.000000
vn 0.000000 0.000000 -1.000000
vn 0.000000 0.000000 -1.000000
vn 0.000000 -1.000000 0.000000
vn 0.000000 -1.000000 0.000000
vn 0.000000 -1.000000 0.000000
vn 0.000000 -1.000000 0.000000
vn 1.000000 0.000000 0.000000
vn 1.000000 0.000000 0.000000
vn 0.999600 0.028268 0.000000
vn 0.999571 0.029301 0.000000
vn 0.998239 0.059316 0.000000
vn 0.998239 0.059316 0.000000
vn -1.000000 0.000000 0.000000
vn -1.000000 0.000000 0.000000
vn -0.999571 0.029301 0.000000
vn -0.999600 0.028268 0.000000
vn -0.998239 0.059316 0.000000
vn -0.998239 0.059316 0.000000
s 1
g pCube4
f 13/21/33 14/22/34 15/23/35
f 15/23/35 14/22/34 16/24/36
f 15/23/35 16/24/36 17/25/37
f 17/25/37 16/24/36 18/26/38
s 2
f 17/25/39 18/26/40 19/27/41
f 19/27/41 18/26/40 20/28/42
s 3
f 19/27/43 20/28/44 21/29/45
f 21/29/45 20/28/44 22/30/46
f 21/29/45 22/30/46 23/31/47
f 23/31/47 22/30/46 24/32/48
s 4
f 23/31/49 24/32/50 13/33/51
f 13/33/51 24/32/50 14/34/52
s 5
f 14/22/53 24/35/54 16/24/55
f 16/24/55 24/35/54 22/36/56
f 16/24/55 22/36/56 18/26/57
f 18/26/57 22/36/56 20/37/58
s 6
f 23/38/59 13/21/60 21/39/61
f 21/39/61 13/21/60 15/23/62
f 15/23/62 17/25/63 21/39/61
f 21/39/61 17/25/63 19/40/64
